<?xml version="1.0" encoding="UTF-8"?>
<!DOCTYPE svg PUBLIC "-//W3C//DTD SVG 1.1//EN" "http://www.w3.org/Graphics/SVG/1.1/DTD/svg11.dtd">
<!-- Creator: CorelDRAW X7 -->
<svg xmlns="http://www.w3.org/2000/svg" xml:space="preserve" width="0.123331in" height="0.123331in" version="1.1" style="shape-rendering:geometricPrecision; text-rendering:geometricPrecision; image-rendering:optimizeQuality; fill-rule:evenodd; clip-rule:evenodd"
viewBox="0 0 123 123"
 xmlns:xlink="http://www.w3.org/1999/xlink">
 <defs>
  <style type="text/css">
   <![CDATA[
    .fil0 {fill:#555555}
   ]]>
  </style>
 </defs>
 <g id="Layer_x0020_1">
  <metadata id="CorelCorpID_0Corel-Layer"/>
  <path class="fil0" d="M0 54c0,0 0,-7 3,-11l12 -15c0,0 1,-1 1,-2l0 -18c0,-3 3,-8 7,-8l77 0c3,0 8,4 8,8l0 18c1,1 1,2 2,2l11 15c5,7 2,23 -9,23l0 50c0,3 -3,7 -8,7l-85 0c-3,0 -7,-3 -7,-7l0 -50c-6,0 -12,-6 -12,-12zm12 4l7 0 16 -27 -12 0c-1,0 -2,1 -3,1l-11 16c-2,2 -3,9 3,10zm7 58l26 0 0 -39c0,-2 1,-4 4,-4l28 0c2,0 4,2 4,4l0 39 23 0 0 -50 -85 0 0 50 0 0zm4 -58l16 0 8 -27 -8 0 -16 27zm0 -35l77 0 0 -15 -77 0 0 15zm20 35l17 0 0 -27 -9 0 -8 27zm6 58l28 0 0 -39 -28 0 0 39zm15 -58l16 0 -7 -27 -9 0 0 27zm12 -27l8 27 16 0 -15 -27 -9 0zm14 0l14 27 8 0c5,0 5,-7 3,-10l-12 -16c0,0 -2,-1 -3,-1l-10 0 0 0z"/>
 </g>
</svg>
