<?xml version="1.0" encoding="UTF-8"?>
<!DOCTYPE svg PUBLIC "-//W3C//DTD SVG 1.1//EN" "http://www.w3.org/Graphics/SVG/1.1/DTD/svg11.dtd">
<!-- Creator: CorelDRAW X7 -->
<svg xmlns="http://www.w3.org/2000/svg" xml:space="preserve" width="0.16in" height="0.16in" version="1.1" style="shape-rendering:geometricPrecision; text-rendering:geometricPrecision; image-rendering:optimizeQuality; fill-rule:evenodd; clip-rule:evenodd"
viewBox="0 0 160 160"
 xmlns:xlink="http://www.w3.org/1999/xlink">
 <defs>
  <style type="text/css">
   <![CDATA[
    .fil0 {fill:none}
    .fil1 {fill:#EB2227}
   ]]>
  </style>
 </defs>
 <g id="Layer_x0020_1">
  <metadata id="CorelCorpID_0Corel-Layer"/>
  <rect class="fil0" width="160" height="160"/>
  <path class="fil1" d="M0 70c0,0 0,-9 4,-14l15 -20c0,0 1,-1 1,-2l0 -24c0,-4 4,-10 10,-10l100 0c4,0 10,5 10,10l0 24c1,1 1,2 2,2l15 20c6,9 2,30 -12,29l0 65c0,4 -4,10 -10,10l-110 0c-4,0 -10,-4 -10,-10l0 -65c-7,0 -15,-7 -15,-15zm15 5l10 0 20 -35 -15 0c-1,0 -3,1 -4,2l-15 20c-2,3 -3,12 4,13zm10 75l33 0 0 -50c0,-3 2,-5 5,-5l37 0c2,0 5,2 5,5l0 50 30 0 0 -65 -110 0 0 65 0 0zm5 -75l21 0 10 -35 -11 0 -20 35zm0 -45l100 0 0 -20 -100 0 0 20zm26 45l22 0 0 -35 -12 0 -10 35zm7 75l37 0 0 -50 -37 0 0 50zm20 -75l21 0 -10 -35 -11 0 0 35zm16 -35l10 35 21 0 -20 -35 -11 0zm17 0l19 35 10 0c6,0 6,-9 4,-13l-15 -20c-1,-1 -3,-2 -4,-2l-14 0 0 0z"/>
 </g>
</svg>
