<?xml version="1.0" encoding="UTF-8"?>
<!DOCTYPE svg PUBLIC "-//W3C//DTD SVG 1.1//EN" "http://www.w3.org/Graphics/SVG/1.1/DTD/svg11.dtd">
<!-- Creator: CorelDRAW X7 -->
<svg xmlns="http://www.w3.org/2000/svg" xml:space="preserve" width="0.4in" height="0.4in" version="1.1" style="shape-rendering:geometricPrecision; text-rendering:geometricPrecision; image-rendering:optimizeQuality; fill-rule:evenodd; clip-rule:evenodd"
viewBox="0 0 400 400"
 xmlns:xlink="http://www.w3.org/1999/xlink">
 <defs>
  <style type="text/css">
   <![CDATA[
    .str0 {stroke:#9A7852;stroke-width:3}
    .str1 {stroke:#9A7852;stroke-width:3}
    .fil0 {fill:none}
    .fil2 {fill:none;fill-rule:nonzero}
    .fil4 {fill:#9A7852}
    .fil3 {fill:#9A7852}
    .fil5 {fill:#F26B35}
    .fil1 {fill:#FFF212}
    .fil6 {fill:#F26B35;fill-rule:nonzero}
   ]]>
  </style>
 </defs>
 <g id="Layer_x0020_1">
  <metadata id="CorelCorpID_0Corel-Layer"/>
  <g id="_970154640">
   <rect class="fil0" width="400" height="400"/>
   <path class="fil1" d="M389 196c0,99 -86,179 -192,179 -106,0 -192,-80 -192,-179 0,-99 86,-179 192,-179 106,0 192,80 192,179z"/>
   <g>
    <line class="fil2 str0" x1="47" y1="313" x2="47" y2= "313" />
   </g>
   <g>
    <line class="fil2 str0" x1="59" y1="327" x2="59" y2= "327" />
   </g>
   <path class="fil3" d="M368 266c-4,8 -8,15 -12,22 -10,15 -22,25 -34,36 -15,15 -35,24 -55,33 -37,15 -82,20 -122,8 -76,-22 -131,-87 -132,-161 -1,-43 19,-90 50,-121 11,-12 30,-27 52,-37 22,-10 45,-16 58,-18 -37,5 -75,20 -103,44 61,-56 161,-63 231,-20 -65,-40 -153,-37 -215,4 -31,21 -56,51 -70,85 -13,35 -15,74 -6,109 -13,-41 -9,-90 13,-131 22,-41 62,-74 107,-89 45,-15 95,-14 138,2 43,16 79,46 101,81 6,11 13,24 17,34 -15,-40 -44,-76 -83,-99 -39,-24 -88,-34 -134,-28 -47,6 -93,29 -124,64 -32,35 -48,82 -45,127 2,40 20,80 49,111 28,30 67,51 109,59 13,2 27,4 40,4 10,0 19,-1 29,-2 46,-6 92,-29 123,-65 15,-16 31,-41 38,-66 7,-25 6,-49 3,-56 0,13 -1,27 -4,40 0,-5 1,-11 1,-16 -1,5 -2,11 -3,16 1,-4 1,-9 1,-10 -1,6 -3,15 -4,20 0,3 -4,16 -6,20 3,-10 6,-23 7,-31 -1,4 -2,7 -3,10 1,-4 2,-12 2,-14 -2,8 -3,15 -7,24 -2,6 -5,12 -8,18 4,-7 8,-17 8,-23 -1,3 -2,7 -4,11 0,-1 0,-1 0,-1 -1,1 -1,3 -2,5 0,0 -1,0 -1,0l1 0 -1 1z"/>
   <path class="fil4" d="M384 260c-4,8 -9,19 -14,26l14 -26z"/>
   <g>
    <path class="fil2 str1" d="M2 202c0,0 -4,-31 14,-73 17,-41 63,-90 128,-107 63,-17 138,0 186,41 49,40 67,98 70,133"/>
   </g>
   <g>
    <path class="fil2 str1" d="M108 41c0,1 38,-22 98,-20 29,1 63,8 93,25 31,17 58,43 75,73"/>
   </g>
   <path class="fil3" d="M92 209c7,0 11,-2 15,-5 3,-4 5,-8 5,-13 0,0 0,0 0,-1 0,0 0,0 0,0 0,-1 0,-1 0,-1 0,-1 0,-1 0,-1 -1,-5 -3,-10 -7,-14 -3,-4 -8,-6 -13,-5l0 40zm0 53c7,0 13,-2 18,-6 4,-5 6,-11 6,-19 0,-9 -3,-15 -8,-19 -5,-3 -10,-5 -16,-5l0 49zm-4 -96c1,0 3,0 5,0 1,0 1,0 2,0 0,0 1,0 1,0 6,0 11,2 16,6 4,4 7,10 7,17 0,5 -1,9 -4,13 -3,4 -7,7 -11,9 6,2 11,5 15,10 4,4 6,10 5,15 0,8 -2,15 -8,21 -5,5 -13,8 -23,8 -2,0 -3,0 -5,0 -1,0 -3,-1 -4,-1l0 -97c1,-1 2,-1 4,-1z"/>
   <polygon class="fil3" points="140,166 140,265 133,265 133,166 "/>
   <path class="fil5" d="M172 165c-6,6 -9,11 -12,15 -2,5 -4,9 -4,12 0,4 2,7 4,10 2,3 4,6 7,9 0,1 1,1 1,1 0,0 0,0 1,1 3,3 5,6 8,9 2,4 4,8 4,12 0,4 -2,9 -5,15 -3,5 -8,12 -16,19l-2 -2c6,-6 10,-11 13,-16 2,-4 3,-8 3,-12 0,-4 -1,-7 -3,-11 -3,-3 -5,-6 -8,-9 0,0 0,0 0,0 0,0 0,0 -1,0 -2,-3 -5,-6 -7,-10 -3,-3 -4,-7 -4,-11 0,-4 1,-9 4,-15 4,-8 10,-14 15,-19l2 2z"/>
   <polygon class="fil3" points="217,166 217,169 205,169 205,265 197,265 197,169 185,169 185,166 "/>
   <path class="fil3" d="M234 218c8,0 15,-3 19,-8 4,-5 6,-11 6,-17 0,-6 -2,-11 -6,-16 -4,-5 -10,-8 -19,-8l0 49zm4 3c0,0 -1,0 -2,0 0,0 0,0 -1,0 0,0 0,0 -1,0l0 44 -7 0 0 -99c14,-1 25,1 31,7 6,6 9,12 9,19 0,0 0,0 0,1 0,0 0,0 0,1 0,5 -2,10 -5,15 -4,5 -8,8 -14,10 8,2 13,6 15,9 3,4 4,10 3,19 0,3 1,6 1,9 1,3 2,6 3,8l-8 0c-1,-1 -1,-3 -2,-5 -1,-2 -1,-4 -1,-7 1,-10 -1,-17 -4,-22 -2,-5 -7,-8 -15,-9 0,0 -1,0 -2,0z"/>
   <path class="fil3" d="M290 184c-4,9 -6,20 -6,33 0,12 2,23 6,33 5,9 10,13 17,13 7,0 13,-4 17,-14 4,-9 6,-20 6,-33 0,-13 -2,-23 -6,-32 -4,-9 -10,-13 -17,-13 -7,0 -12,4 -17,13zm38 -2c6,10 9,22 9,36 0,13 -3,25 -9,34 -6,10 -13,15 -21,15 -8,0 -15,-5 -21,-15 -6,-9 -9,-21 -9,-34 0,-14 3,-26 9,-36 6,-9 13,-14 21,-14 8,0 15,5 21,14z"/>
   <path class="fil3" d="M99 108c-10,0 -17,2 -22,8 -4,6 -7,12 -7,19 0,7 2,13 7,18 5,6 12,9 22,8l0 2c-11,1 -20,-2 -26,-8 -5,-6 -8,-13 -8,-20 0,0 0,0 0,0 0,0 0,0 0,0 0,-8 3,-15 8,-21 6,-6 15,-9 26,-8l0 2z"/>
   <path class="fil3" d="M110 136c4,0 8,-1 10,-4 3,-3 4,-6 4,-10 0,0 0,0 0,0 0,0 0,0 0,0 0,-3 -1,-6 -4,-9 -2,-3 -5,-4 -10,-5l0 28zm2 2c0,0 -1,0 -1,0 0,0 0,0 -1,0 0,0 0,0 0,0l0 25 -4 0 0 -56c8,-1 14,1 17,4 4,3 5,6 5,11 0,0 0,0 0,0 0,0 0,0 0,0 0,3 -1,6 -3,9 -2,3 -4,5 -7,6 4,1 7,3 8,5 1,2 2,6 2,10 0,0 0,1 0,1 0,0 0,0 0,0 0,2 0,3 0,5 1,2 1,3 2,4l-5 0c0,-1 -1,-2 -1,-3 0,-1 0,-2 0,-4 0,-5 -1,-10 -2,-12 -2,-3 -5,-5 -9,-5 0,0 -1,0 -1,0z"/>
   <path class="fil3" d="M138 107l0 46c1,3 1,5 3,6 1,1 3,1 5,2 2,0 3,-1 5,-2 1,-1 2,-3 2,-6l0 -46 4 0 0 46c0,4 -1,6 -3,8 -2,1 -4,2 -7,2 -3,0 -5,0 -7,-2 -2,-2 -3,-4 -3,-8l0 -46 1 0z"/>
   <path class="fil5" d="M179 106c-4,3 -6,6 -8,9 -1,2 -2,5 -2,7 0,2 1,4 2,5 1,2 3,4 4,5 1,0 1,1 1,1 0,0 0,0 0,0 2,2 3,4 5,6 1,1 2,4 2,6 0,3 -1,5 -3,8 -1,4 -4,7 -9,12l-1 -2c4,-3 6,-6 7,-9 2,-2 2,-5 2,-7 0,-2 0,-4 -2,-6 -1,-1 -2,-3 -4,-5 0,0 0,0 0,0 0,0 0,0 0,0 -2,-2 -4,-4 -5,-5 -1,-2 -2,-4 -2,-7 0,-2 1,-5 3,-8 1,-3 4,-7 8,-11l2 1z"/>
   <polygon class="fil3" points="206,107 206,108 199,108 199,163 195,163 195,108 188,108 188,107 "/>
   <path class="fil5" d="M73 287l0 0c0,0 -1,0 -1,0 -2,1 -5,1 -5,3 0,1 1,2 2,2 2,0 4,-1 4,-3l0 -2zm-7 -2c1,-2 2,-3 4,-3 2,0 4,1 4,3l0 6c0,0 0,0 1,0 0,0 0,0 0,0l0 1c0,0 0,0 0,0 -2,0 -2,0 -2,-1l0 0c-1,1 -2,2 -4,2 -2,0 -3,-1 -3,-3 0,-3 3,-3 5,-3 1,-1 2,-1 2,-2 0,-1 -1,-2 -3,-2 -1,0 -2,1 -2,2l-2 0z"/>
   <path class="fil5" d="M94 292l-1 0 0 -1 0 0c-1,1 -2,2 -4,2 -2,0 -3,-2 -3,-4l0 -7 1 0 0 7c0,2 1,3 3,3 2,0 3,-2 3,-4l0 -6 1 0 0 10z"/>
   <path class="fil5" d="M107 282l2 0 0 1 -2 0 0 7c0,1 0,1 1,2 0,0 1,0 1,-1l0 2c0,0 -1,0 -1,0 -2,0 -2,-1 -2,-3l0 -7 -2 0 0 -1 2 0 0 -3 1 0 0 3z"/>
   <path class="fil5" d="M120 278l1 0 0 6 0 0c0,-1 2,-2 3,-2 3,0 4,2 4,4l0 6 -1 0 0 -6c0,-2 -1,-3 -3,-3 -2,0 -3,2 -3,4l0 5 -1 0 0 -14z"/>
   <path class="fil5" d="M146 287c0,-2 -1,-4 -3,-4 -2,0 -3,2 -3,4l6 0zm-6 1c0,2 1,4 3,4 2,0 3,-1 3,-3l2 0c-1,2 -2,4 -5,4 -3,0 -4,-3 -4,-6 0,-2 1,-5 4,-5 3,0 5,3 5,6l-8 0z"/>
   <path class="fil5" d="M158 282l1 0 0 2 1 0c0,-1 1,-2 3,-2 3,0 3,2 3,4l0 6 -1 0 0 -6c0,-2 0,-3 -2,-3 -2,0 -3,2 -4,4l0 5 -1 0 0 -10z"/>
   <path class="fil5" d="M180 282l2 0 0 1 -2 0 0 7c0,1 0,1 1,2 0,0 0,0 1,-1l0 2c-1,0 -1,0 -1,0 -2,0 -3,-1 -3,-3l0 -7 -1 0 0 -1 1 0 0 -3 2 0 0 3z"/>
   <path class="fil5" d="M192 282l2 0 0 10 -2 0 0 -10zm0 -4l2 0 0 2 -2 0 0 -2z"/>
   <path class="fil5" d="M212 286c0,-2 -1,-3 -3,-3 -2,0 -3,2 -3,4 0,3 1,5 3,5 2,0 3,-1 3,-3l1 0c0,2 -2,4 -4,4 -3,0 -5,-3 -5,-6 0,-2 2,-5 5,-5 2,0 4,1 4,4l-1 0z"/>
   <path class="fil5" d="M238 282l2 0 0 10 -2 0 0 -10zm0 -4l2 0 0 2 -2 0 0 -2z"/>
   <path class="fil5" d="M253 282l2 0 0 1 -2 0 0 7c0,1 0,1 1,2 0,0 1,0 1,-1l0 2c0,0 -1,0 -1,0 -2,0 -2,-1 -2,-3l0 -7 -2 0 0 -1 2 0 0 -3 1 0 0 3z"/>
   <path class="fil5" d="M272 287l0 0c0,0 -1,0 -1,0 -2,1 -5,1 -5,3 0,1 1,2 3,2 2,0 3,-1 3,-3l0 -2zm-6 -2c0,-2 1,-3 4,-3 1,0 3,1 3,3l0 6c0,0 1,0 1,0 0,0 0,0 0,0l0 1c0,0 0,0 0,0 -2,0 -2,0 -2,-1l0 0c-1,1 -2,2 -3,2 -2,0 -4,-1 -4,-3 0,-3 3,-3 6,-3 1,-1 1,-1 1,-2 0,-1 -1,-2 -2,-2 -2,0 -3,1 -3,2l-1 0z"/>
   <polygon class="fil5" points="285,278 286,278 286,292 285,292 "/>
   <path class="fil5" d="M297 282l2 0 0 10 -2 0 0 -10zm0 -4l2 0 0 2 -2 0 0 -2z"/>
   <path class="fil5" d="M316 287l0 0c0,0 0,0 -1,0 -2,1 -4,1 -4,3 0,1 1,2 2,2 2,0 3,-1 3,-3l0 -2zm-6 -2c0,-2 2,-3 4,-3 2,0 4,1 4,3l0 6c0,0 0,0 0,0 0,0 1,0 1,0l0 1c-1,0 -1,0 -1,0 -1,0 -2,0 -2,-1l0 0c0,1 -1,2 -3,2 -2,0 -4,-1 -4,-3 0,-3 3,-3 6,-3 1,-1 1,-1 1,-2 0,-1 -1,-2 -2,-2 -2,0 -3,1 -3,2l-1 0z"/>
   <path class="fil5" d="M329 282l1 0 0 2 0 0c1,-1 2,-2 3,-2 3,0 4,2 4,4l0 6 -1 0 0 -6c0,-2 -1,-3 -3,-3 -2,0 -3,2 -3,4l0 5 -1 0 0 -10z"/>
   <g>
    <path class="fil6" d="M172 115l-1 -1 0 0 0 0 0 0 0 0 0 -1 0 0 1 0 0 0 0 -1 0 0 0 0 1 0 0 -1 0 0 0 0 0 -1 1 0 0 0 0 0 0 -1 1 0 0 0 0 0 0 -1 1 0 0 0 0 -1 0 0 1 0 0 -1 0 0 1 0 0 0 1 1 0 0 -1 0 0 1 0 0 0 0 -1 0 0 1 0 0 -1 0 0 1 0 0 0 0 -1 0 0 1 0 0 0 0 0 0 -1 1 0 0 0 0 0 1 0 0 -1 0 0 0 0 1 0 0 0 0 0 0 0 0 -1 1 0 0 0 0 0 0zm0 0l0 0 0 0 0 0zm-2 7l-1 0 0 0 0 -1 0 0 0 0 0 0 0 -1 0 0 0 0 0 0 0 0 0 -1 0 0 0 0 0 0 0 0 0 -1 0 0 0 0 0 0 0 -1 0 0 1 0 0 0 0 0 0 -1 0 0 0 0 0 0 0 -1 0 0 0 0 1 0 0 -1 1 1 0 0 0 1 0 0 0 0 0 0 -1 0 0 1 0 0 0 0 0 0 0 1 0 0 0 0 0 0 0 0 0 1 0 0 0 0 -1 0 0 0 0 1 0 0 0 0 0 0 0 0 0 0 0 1 0 0 0 0 0 0 0 0 0 1 0 0zm2 5l-1 1 0 0 -1 0 0 -1 0 0 0 0 0 0 0 0 0 0 0 -1 0 0 0 0 -1 0 0 0 0 -1 0 0 0 0 0 0 0 0 0 -1 0 0 0 0 0 0 0 0 0 -1 0 0 0 0 0 0 0 0 0 -1 0 0 0 0 0 0 0 0 1 0 0 0 0 0 0 0 0 0 0 0 0 1 0 0 0 0 0 0 0 0 0 1 0 0 0 0 1 0 0 0 0 0 0 1 0 0 0 0 0 0 0 0 0 0 0 1 0 0 0 0 0 0 0 0 0 0 1 0 0 1 0 0 0 0 0 0zm0 0l0 0 0 0 0 0zm4 5l-1 1 0 0 0 0 0 0 -1 -1 0 0 0 0 0 0 0 0 0 0 0 0 -1 -1 0 0 0 0 0 0 0 0 0 0 0 -1 0 0 -1 0 0 0 0 0 0 0 0 -1 0 0 0 0 -1 0 0 0 0 0 0 -1 0 0 0 0 0 0 0 0 1 -1 0 0 0 0 0 0 0 1 0 0 1 0 0 0 0 0 0 0 0 0 0 1 0 0 0 0 1 0 0 0 0 0 0 1 0 0 0 0 0 0 1 0 0 0 0 0 0 1 0 0 0 0 0 0 0 0 1 0 0 1 0 0 0 0 0 0zm-1 1l0 0 0 0 0 0zm1 -1l-1 1 0 0 0 0 0 0 0 0 0 0 0 0 0 0 0 0 0 0 0 0 0 0 0 0 0 0 0 0 0 0 0 0 0 0 0 0 0 0 0 0 0 0 0 0 0 0 0 0 0 0 0 0 0 0 0 0 0 0 0 0 0 0 0 0 0 0 1 -1 0 0 0 0 0 0 0 0 0 0 0 0 0 0 0 0 0 0 0 0 0 0 0 0 0 0 0 0 0 0 0 0 0 0 0 0 0 0 0 0 0 0 0 0 0 0 0 0 0 0 0 0 0 0 0 0 0 0 0 0 0 0 0 0 0 0zm1 1l-1 1 0 0 0 0 0 0 0 0 0 0 0 0 0 0 0 0 0 0 0 0 0 0 0 0 0 0 0 0 0 0 0 0 -1 -1 0 0 0 1 0 -1 0 0 0 0 0 0 0 0 0 0 0 0 0 0 0 0 0 0 0 0 0 0 0 0 0 0 1 -1 0 0 0 0 0 0 0 0 0 0 0 0 0 0 0 0 0 0 0 0 0 0 0 0 0 0 0 0 1 0 0 0 0 0 0 0 0 0 -1 0 1 0 0 0 0 0 0 0 0 0 0 0 0 0 0 0 0 0 0 0 0 0 0 0 0 1zm0 -1l0 0 0 1 0 -1zm4 6l-1 1 0 0 0 0 0 0 0 -1 0 0 0 0 -1 0 0 0 0 0 0 -1 0 0 0 0 0 0 -1 0 0 0 0 -1 0 0 0 0 0 0 0 0 -1 0 0 -1 0 0 0 0 0 0 0 0 0 0 -1 -1 0 0 0 0 0 0 0 0 0 0 1 -1 0 0 0 0 0 0 0 0 1 0 0 1 0 0 0 0 0 0 0 0 0 0 1 1 0 0 0 0 0 0 0 0 0 0 1 1 0 0 0 0 0 0 0 0 0 0 0 1 1 0 0 0 0 0 0 0 0 1 0 0 0 0 0 0 0 0zm3 7l-2 0 0 0 0 0 0 0 0 0 0 -1 0 0 0 0 0 0 0 0 0 -1 0 0 0 0 0 0 0 -1 0 0 0 0 0 0 0 0 0 0 0 -1 -1 0 0 0 0 0 0 0 0 -1 0 0 0 0 0 0 0 0 0 0 -1 -1 0 0 0 0 1 -1 1 0 0 0 0 1 0 0 0 0 0 0 0 0 0 1 1 0 0 0 0 0 0 1 0 0 0 0 0 0 0 0 0 1 0 0 0 0 0 0 1 1 0 0 0 0 0 0 0 1 0 0 0 0 0 0 0 0 0 1 0 0 0 0 0 0zm-3 9l-1 -1 0 0 0 0 0 -1 0 0 0 0 0 0 1 -1 0 0 0 0 0 0 0 -1 0 0 0 0 0 0 0 -1 1 0 0 0 0 0 0 -1 0 0 0 0 0 0 0 -1 0 0 0 0 0 0 0 -1 0 0 0 0 0 0 0 0 0 -1 0 0 2 0 0 0 0 1 0 0 0 0 0 0 0 1 0 0 0 0 0 0 0 1 -1 0 0 0 0 0 0 1 0 0 0 0 0 1 0 0 0 0 0 0 0 1 0 0 -1 0 0 0 0 1 0 0 0 0 0 1 0 0 -1 0 0 1 0 0 0 0zm-10 11l1 -1 -1 0 0 0 1 -1 0 0 0 -1 1 0 0 0 0 -1 1 0 0 0 0 -1 1 0 0 -1 0 0 1 0 0 -1 0 0 1 0 0 -1 0 0 0 0 1 -1 0 0 0 0 0 -1 0 0 1 0 0 0 0 -1 0 0 0 0 1 -1 0 0 1 1 0 0 0 0 0 1 -1 0 0 0 0 1 0 0 0 0 -1 1 0 0 0 0 0 1 -1 0 0 0 0 1 -1 0 0 0 0 1 0 0 -1 0 0 1 0 0 -1 1 0 0 0 0 -1 1 0 0 -1 0 0 1 0 0 -1 1 0 0 -1 0zm1 0l-1 1 0 -1 1 0zm-1 -2l1 1 -1 1 -1 -1 0 -1 1 0zm-1 1l-1 -1 1 0 0 1zm7 -10l1 1 0 0 0 0 0 0 0 0 -1 1 0 0 0 0 0 1 0 0 0 0 -1 0 0 1 0 0 0 0 0 0 -1 1 0 0 0 0 0 1 -1 0 0 0 0 0 0 1 -1 0 0 0 0 1 0 0 -1 0 0 1 0 0 -1 0 0 1 0 0 -1 -1 0 0 0 -1 1 0 0 0 0 -1 0 0 1 0 0 -1 0 0 1 0 0 -1 0 0 0 0 0 0 1 -1 0 0 0 0 0 -1 1 0 0 0 0 0 0 -1 0 0 0 0 1 0 0 -1 0 0 0 0 0 0 0 -1 0 0 1 0 0 0zm0 0l0 0 0 0 0 0zm1 -7l2 0 0 0 0 1 0 0 0 0 0 0 0 1 0 0 0 0 0 0 0 0 0 1 0 0 0 0 0 0 0 0 0 1 -1 0 0 0 0 0 0 1 0 0 0 0 0 0 0 1 0 0 0 0 0 0 0 0 -1 1 0 0 0 0 0 0 0 1 -1 -1 0 0 0 0 0 -1 0 0 0 0 0 0 0 -1 0 0 0 0 1 0 0 0 0 -1 0 0 0 0 0 0 0 -1 0 0 0 0 0 0 0 0 0 -1 0 0 0 0 0 0 0 0 0 0 0 -1 0 0 0 0 0 0 0 0 0 -1 0 0zm-1 -5l1 -1 0 0 0 0 0 0 0 0 0 1 1 0 0 0 0 0 0 0 0 1 0 0 0 0 0 0 0 0 0 1 0 0 0 0 1 0 0 0 0 1 0 0 0 0 0 0 0 0 0 1 0 0 0 0 0 0 0 1 0 0 0 0 0 0 0 0 -2 0 0 0 0 0 0 0 0 0 0 -1 0 0 0 0 0 0 0 0 0 0 0 -1 0 0 0 0 0 0 0 0 0 -1 0 0 0 0 0 0 0 0 0 0 0 -1 0 0 -1 0 0 0 0 0 0 0 0 -1 0 0 0 0 0 0 0 0 0 0zm0 0l0 0 1 2 -1 -2zm-4 -5l0 -1 1 0 0 0 0 0 0 0 0 0 0 1 0 0 1 0 0 0 0 0 0 0 0 1 0 0 0 0 1 0 0 0 0 0 0 0 0 1 0 0 0 0 1 0 0 0 0 0 0 1 0 0 0 0 0 0 0 0 1 0 0 1 0 0 0 0 -1 1 0 0 -1 0 0 -1 0 0 0 0 0 0 0 0 0 0 0 -1 -1 0 0 0 0 0 0 0 0 0 0 -1 0 0 0 0 -1 0 0 0 0 0 0 0 0 -1 0 0 0 0 -1 0 0 0 0 0 0 -1 0 0 0 0 0 0 -1 0 1 0zm0 -1l1 0 0 0 -1 0zm-1 1l1 -1 0 0 0 0 0 0 0 0 0 0 1 0 -1 0 0 0 0 0 1 0 0 0 -1 0 0 0 0 0 0 0 0 0 0 0 0 0 0 0 0 0 0 0 0 0 0 0 0 0 0 0 0 0 0 0 0 0 0 0 0 0 0 0 0 0 0 0 0 1 0 0 0 0 0 0 0 0 0 0 0 0 0 0 0 0 -1 0 0 0 1 0 -1 0 0 0 1 0 -1 0 0 0 0 0 0 0 0 0 0 0 0 0 0 0 0 0 0 0 0 0 0 0 0 0 0 0 0 0 0 0 0 0 0 0 0 0zm0 0l0 0 0 0 0 0zm0 -1l1 -1 0 0 0 0 0 0 0 0 0 0 0 0 0 0 0 0 0 0 0 0 0 0 0 0 0 0 0 0 0 0 0 0 0 0 0 0 0 0 0 1 0 0 0 0 0 0 0 0 0 0 0 0 0 0 0 0 0 0 0 0 0 0 0 0 0 0 -1 1 0 0 0 0 0 0 0 0 0 0 0 0 0 0 0 0 0 0 0 0 0 0 0 0 0 0 0 0 0 0 0 0 0 0 0 0 0 0 0 0 0 0 0 0 0 0 0 0 0 0 0 0 0 0 0 0 0 0 0 0 0 0 0 0 0 -1zm0 1l0 0 0 -1 0 1zm-4 -6l1 -1 0 0 0 0 0 0 0 1 0 0 0 0 1 0 0 0 0 0 0 1 0 0 0 0 0 0 0 0 1 0 0 1 0 0 0 0 0 0 0 0 0 0 1 1 0 0 0 0 0 0 0 0 0 0 0 1 1 0 0 0 0 0 0 0 0 0 -1 1 0 0 0 0 0 0 -1 0 0 0 0 0 0 -1 0 0 0 0 0 0 -1 0 0 0 0 -1 0 0 0 0 0 0 0 0 -1 -1 0 0 0 0 0 0 0 0 0 0 0 -1 -1 0 0 0 0 0 0 0 0 0 0 -1 0 0 0 0 0 0zm0 0l0 0 0 0 0 0zm-3 -7l2 0 0 0 0 0 0 1 0 0 0 0 0 0 0 0 0 1 0 0 0 0 0 0 0 0 0 1 0 0 0 0 0 0 0 0 0 1 1 0 0 0 0 0 0 0 0 0 0 1 0 0 0 0 0 0 0 0 0 0 0 1 1 0 0 0 0 0 -1 1 -1 0 0 0 0 -1 0 0 0 0 0 0 0 0 0 -1 -1 0 0 0 0 0 0 0 0 -1 0 0 0 0 0 0 0 0 0 -1 0 0 0 0 0 0 0 -1 0 0 0 0 -1 0 0 0 0 -1 0 0 0 0 0 0 0 -1 0 0 0 0zm2 0l0 0 0 0 0 0zm1 -8l1 0 0 0 0 1 0 0 0 0 0 0 0 1 -1 0 0 0 0 1 0 0 0 0 0 0 0 1 0 0 0 0 0 0 -1 1 0 0 0 0 0 0 0 0 0 1 0 0 0 0 0 0 0 1 0 0 0 0 0 0 0 0 0 1 0 0 0 0 -2 0 0 0 0 0 0 -1 0 0 0 0 0 0 0 -1 1 0 0 0 0 0 0 -1 0 0 0 0 0 0 0 -1 0 0 0 0 0 0 0 -1 0 0 0 0 1 -1 0 0 0 0 0 0 0 -1 0 0 0 0 0 0 1 -1 0 0 0 0 0 0zm0 0l0 0 1 -2 -1 2zm10 -12l-1 2 1 0 -1 0 0 0 0 1 -1 0 0 1 0 0 -1 0 0 1 0 0 -1 0 0 1 0 0 -1 0 0 1 0 0 0 0 -1 1 0 0 0 0 0 1 -1 0 0 0 0 1 0 0 -1 0 0 1 0 0 0 0 0 1 0 0 -1 0 0 0 -1 0 0 -1 0 0 0 0 1 -1 0 0 0 0 0 -1 0 0 1 0 0 0 0 -1 0 0 1 0 0 -1 0 0 0 -1 1 0 0 0 0 -1 0 0 1 0 0 -1 0 0 1 0 0 -1 0 0 1 -1 0 0 1 0 0 -1 0 0 1 -1 1 0zm-1 0l0 0 1 0 -1 0zm1 3l-1 -1 1 -2 1 1 0 2 -1 0zm1 -2l1 1 -1 1 0 -2z"/>
   </g>
  </g>
 </g>
</svg>
