<?xml version="1.0" encoding="UTF-8"?>
<!DOCTYPE svg PUBLIC "-//W3C//DTD SVG 1.1//EN" "http://www.w3.org/Graphics/SVG/1.1/DTD/svg11.dtd">
<!-- Creator: CorelDRAW X7 -->
<svg xmlns="http://www.w3.org/2000/svg" xml:space="preserve" width="0.4in" height="0.4in" version="1.1" style="shape-rendering:geometricPrecision; text-rendering:geometricPrecision; image-rendering:optimizeQuality; fill-rule:evenodd; clip-rule:evenodd"
viewBox="0 0 400 400"
 xmlns:xlink="http://www.w3.org/1999/xlink">
 <defs>
  <style type="text/css">
   <![CDATA[
    .fil1 {fill:none}
    .fil0 {fill:url(#id1)}
   ]]>
  </style>
   <clipPath id="id0">
    <rect y="95" width="400" height="209"/>
   </clipPath>
  <linearGradient id="id1" gradientUnits="userSpaceOnUse" x1="1904.87" y1="-1824.99" x2="1904.87" y2="-713.346">
   <stop offset="0" style="stop-opacity:1; stop-color:#5F605F"/>
   <stop offset="1" style="stop-opacity:1; stop-color:#FEFEFE"/>
  </linearGradient>
 </defs>
<symbol id="Fm14-21-0" viewBox="1196 -1825 1417 1112">
 <path class="fil0" d="M2613 -1067l0 -505c0,-25 -18,-47 -43,-50l0 0 -1313 -202c-17,-3 -34,3 -46,15 -12,13 -17,30 -14,47l171 808c6,24 28,41 54,38l530 -46 -67 182c-8,21 -1,44 18,57 9,6 19,10 30,10 11,0 22,-4 32,-11l380 -273 221 -20c27,-2 47,-24 47,-50z"/>
</symbol>
 <g id="Layer_x0020_1">
  <metadata id="CorelCorpID_0Corel-Layer"/>
  <rect class="fil1" width="400" height="400"/>
  <g style="clip-path:url(#id0)">
   <image x="0" y="95" width="400" height="209" xlink:href="Potato Lovers_Images\Potato Lovers_ImgID1.png"/>
  </g>
 </g>
</svg>
