<?xml version="1.0" encoding="UTF-8"?>
<!DOCTYPE svg PUBLIC "-//W3C//DTD SVG 1.1//EN" "http://www.w3.org/Graphics/SVG/1.1/DTD/svg11.dtd">
<!-- Creator: CorelDRAW X7 -->
<svg xmlns="http://www.w3.org/2000/svg" xml:space="preserve" width="0.4in" height="0.4in" version="1.1" style="shape-rendering:geometricPrecision; text-rendering:geometricPrecision; image-rendering:optimizeQuality; fill-rule:evenodd; clip-rule:evenodd"
viewBox="0 0 400 400"
 xmlns:xlink="http://www.w3.org/1999/xlink">
 <defs>
  <style type="text/css">
   <![CDATA[
    .fil0 {fill:none}
   ]]>
  </style>
     <clipPath id="id0">
      <rect width="400" height="400"/>
     </clipPath>
     <clipPath id="id1">
      <rect x="83" y="83" width="234" height="234"/>
     </clipPath>
     <clipPath id="id2">
      <rect x="15" y="235" width="190.555" height="72.126"/>
     </clipPath>
     <clipPath id="id3">
      <rect x="11" y="237" width="202.5" height="77.0039"/>
     </clipPath>
     <clipPath id="id4">
      <rect x="133" y="268" width="131.102" height="44.3504"/>
     </clipPath>
     <clipPath id="id5">
      <rect x="147" y="276" width="110.63" height="46.6654"/>
     </clipPath>
     <clipPath id="id6">
      <rect x="152" y="281" width="103.689" height="38.622"/>
     </clipPath>
     <clipPath id="id7">
      <rect x="160" y="290" width="90.7677" height="27.9016"/>
     </clipPath>
     <clipPath id="id8">
      <rect x="140" y="100" width="57.9961" height="64.3346"/>
     </clipPath>
     <clipPath id="id9">
      <rect x="165" y="129" width="4.50787" height="2.92126"/>
     </clipPath>
     <clipPath id="id10">
      <rect x="183" y="122" width="3.40945" height="3.40945"/>
     </clipPath>
     <clipPath id="id11">
      <rect x="209" y="2" width="137" height="196"/>
     </clipPath>
     <clipPath id="id12">
      <rect x="100" y="217" width="86.626" height="31.311"/>
     </clipPath>
     <clipPath id="id13">
      <rect x="109" y="221" width="63.1142" height="22.7835"/>
     </clipPath>
     <clipPath id="id14">
      <rect x="198" y="119" width="50.8071" height="33.1417"/>
     </clipPath>
     <clipPath id="id15">
      <rect x="236" y="51" width="80.0512" height="124.764"/>
     </clipPath>
     <clipPath id="id16">
      <rect x="219" y="65" width="112.094" height="97.2283"/>
     </clipPath>
     <clipPath id="id17">
      <rect x="212" y="123" width="34.3622" height="26.9252"/>
     </clipPath>
     <clipPath id="id18">
      <rect x="234" y="97" width="60.189" height="131.102"/>
     </clipPath>
     <clipPath id="id19">
      <rect x="116" y="131" width="117" height="172"/>
     </clipPath>
     <clipPath id="id20">
      <rect x="266" y="112" width="4.62992" height="6.57874"/>
     </clipPath>
     <clipPath id="id21">
      <rect x="223" y="128" width="16.3268" height="6.94488"/>
     </clipPath>
     <clipPath id="id22">
      <rect x="95" y="110" width="33.5079" height="42.0354"/>
     </clipPath>
     <clipPath id="id23">
      <rect x="93" y="108" width="86.3819" height="146.937"/>
     </clipPath>
     <clipPath id="id24">
      <rect x="180" y="154" width="70.3031" height="50.685"/>
     </clipPath>
     <clipPath id="id25">
      <rect x="233" y="169" width="60.189" height="61.5315"/>
     </clipPath>
     <clipPath id="id26">
      <rect x="257" y="102" width="5.72441" height="7.91732"/>
     </clipPath>
     <clipPath id="id27">
      <rect x="251" y="96" width="45.2008" height="76.8819"/>
     </clipPath>
     <clipPath id="id28">
      <rect x="218" y="132" width="20.3465" height="7.67717"/>
     </clipPath>
     <clipPath id="id29">
      <rect x="216" y="137" width="20.4685" height="7.67717"/>
     </clipPath>
     <clipPath id="id30">
      <rect x="126" y="73" width="74.0787" height="92.1102"/>
     </clipPath>
     <clipPath id="id31">
      <rect x="156" y="112" width="33.752" height="34.9685"/>
     </clipPath>
     <clipPath id="id32">
      <rect x="15" y="14" width="346" height="379"/>
     </clipPath>
     <clipPath id="id33">
      <rect x="115" y="214" width="135.972" height="92.9646"/>
     </clipPath>
     <clipPath id="id34">
      <rect x="257" y="237" width="34.7244" height="23.7598"/>
     </clipPath>
     <clipPath id="id35">
      <rect x="131" y="244" width="137.681" height="46.5433"/>
     </clipPath>
     <clipPath id="id36">
      <rect x="141" y="248" width="116.476" height="35.8228"/>
     </clipPath>
     <clipPath id="id37">
      <rect x="261" y="239" width="28.1457" height="12.185"/>
     </clipPath>
     <clipPath id="id38">
      <rect x="239" y="230" width="48.4921" height="14.378"/>
     </clipPath>
     <clipPath id="id39">
      <rect x="204" y="55" width="158" height="140"/>
     </clipPath>
     <clipPath id="id40">
      <rect x="154" y="254" width="89.7992" height="27.4173"/>
     </clipPath>
 </defs>
 <g id="Layer_x0020_1">
  <metadata id="CorelCorpID_0Corel-Layer"/>
  <rect class="fil0" width="400" height="400"/>
  <g id="_912413312">
   <g id="Group_x0020_1">
    <g style="clip-path:url(#id0)">
     <image id="Layer_x0020_8" x="0" y="0" width="400" height="400" xlink:href="Kung Fu_Images\Kung Fu_ImgID1.png"/>
    </g>
    <g style="clip-path:url(#id1)">
     <image id="Layer_x0020_8_x0020_copy" x="83" y="83" width="234" height="234" xlink:href="Kung Fu_Images\Kung Fu_ImgID2.png"/>
    </g>
    <g style="clip-path:url(#id2)">
     <image id="Layer_x0020_30" x="15" y="235" width="190.551" height="72.122" xlink:href="Kung Fu_Images\Kung Fu_ImgID3.png"/>
    </g>
    <g style="clip-path:url(#id3)">
     <image id="Layer_x0020_30_x0020_copy" x="11" y="237" width="202.496" height="77" xlink:href="Kung Fu_Images\Kung Fu_ImgID4.png"/>
    </g>
    <g style="clip-path:url(#id4)">
     <image id="Layer_x0020_36" x="133" y="268" width="131.098" height="44.3465" xlink:href="Kung Fu_Images\Kung Fu_ImgID5.png"/>
    </g>
    <g style="clip-path:url(#id5)">
     <image id="Layer_x0020_31" x="147" y="276" width="110.63" height="46.6614" xlink:href="Kung Fu_Images\Kung Fu_ImgID6.png"/>
    </g>
    <g style="clip-path:url(#id6)">
     <image id="Layer_x0020_32" x="152" y="281" width="103.685" height="38.6181" xlink:href="Kung Fu_Images\Kung Fu_ImgID7.png"/>
    </g>
    <g style="clip-path:url(#id7)">
     <image id="Layer_x0020_33" x="160" y="290" width="90.7638" height="27.8976" xlink:href="Kung Fu_Images\Kung Fu_ImgID8.png"/>
    </g>
    <g style="clip-path:url(#id8)">
     <image id="Layer_x0020_11" x="140" y="100" width="57.9921" height="64.3307" xlink:href="Kung Fu_Images\Kung Fu_ImgID9.png"/>
    </g>
    <g style="clip-path:url(#id9)">
     <image id="Layer_x0020_12" x="165" y="129" width="4.50394" height="2.91732" xlink:href="Kung Fu_Images\Kung Fu_ImgID10.png"/>
    </g>
    <g style="clip-path:url(#id10)">
     <image id="Layer_x0020_12_x0020_copy" x="183" y="122" width="3.40551" height="3.40551" xlink:href="Kung Fu_Images\Kung Fu_ImgID11.png"/>
    </g>
    <g style="clip-path:url(#id11)">
     <image id="Layer_x0020_28" x="209" y="2" width="137" height="196" xlink:href="Kung Fu_Images\Kung Fu_ImgID12.png"/>
    </g>
    <g style="clip-path:url(#id12)">
     <image id="Layer_x0020_29" x="100" y="217" width="86.622" height="31.3071" xlink:href="Kung Fu_Images\Kung Fu_ImgID13.png"/>
    </g>
    <g style="clip-path:url(#id13)">
     <image id="Layer_x0020_29_x0020_copy" x="109" y="221" width="63.1102" height="22.7795" xlink:href="Kung Fu_Images\Kung Fu_ImgID14.png"/>
    </g>
    <g style="clip-path:url(#id14)">
     <image id="Layer_x0020_13" x="198" y="119" width="50.8031" height="33.1378" xlink:href="Kung Fu_Images\Kung Fu_ImgID15.png"/>
    </g>
    <g style="clip-path:url(#id15)">
     <image id="Layer_x0020_12_x0020_copy_0" x="236" y="51" width="80.0472" height="124.76" xlink:href="Kung Fu_Images\Kung Fu_ImgID16.png"/>
    </g>
    <g style="clip-path:url(#id16)">
     <image id="Layer_x0020_12_x0020_copy_x0020_2" x="219" y="65" width="112.091" height="97.2244" xlink:href="Kung Fu_Images\Kung Fu_ImgID17.png"/>
    </g>
    <g style="clip-path:url(#id17)">
     <image id="Layer_x0020_14" x="212" y="123" width="34.3583" height="26.9252" xlink:href="Kung Fu_Images\Kung Fu_ImgID18.png"/>
    </g>
    <g style="clip-path:url(#id18)">
     <image id="Layer_x0020_22" x="234" y="97" width="60.185" height="131.098" xlink:href="Kung Fu_Images\Kung Fu_ImgID19.png"/>
    </g>
    <g style="clip-path:url(#id19)">
     <image id="Layer_x0020_24" x="116" y="131" width="117" height="172" xlink:href="Kung Fu_Images\Kung Fu_ImgID20.png"/>
    </g>
    <g style="clip-path:url(#id20)">
     <image id="Layer_x0020_23" x="266" y="112" width="4.62598" height="6.5748" xlink:href="Kung Fu_Images\Kung Fu_ImgID21.png"/>
    </g>
    <g style="clip-path:url(#id21)">
     <image id="Layer_x0020_15" x="223" y="128" width="16.3228" height="6.94094" xlink:href="Kung Fu_Images\Kung Fu_ImgID22.png"/>
    </g>
    <g style="clip-path:url(#id22)">
     <image id="Layer_x0020_16" x="95" y="110" width="33.5039" height="42.0315" xlink:href="Kung Fu_Images\Kung Fu_ImgID23.png"/>
    </g>
    <g style="clip-path:url(#id23)">
     <image id="Layer_x0020_17" x="93" y="108" width="86.378" height="146.933" xlink:href="Kung Fu_Images\Kung Fu_ImgID24.png"/>
    </g>
    <g style="clip-path:url(#id24)">
     <image id="Layer_x0020_18" x="180" y="154" width="70.2992" height="50.6811" xlink:href="Kung Fu_Images\Kung Fu_ImgID25.png"/>
    </g>
    <g style="clip-path:url(#id25)">
     <image id="Layer_x0020_19" x="233" y="169" width="60.185" height="61.5276" xlink:href="Kung Fu_Images\Kung Fu_ImgID26.png"/>
    </g>
    <g style="clip-path:url(#id26)">
     <image id="Layer_x0020_21" x="257" y="102" width="5.72047" height="7.91339" xlink:href="Kung Fu_Images\Kung Fu_ImgID27.png"/>
    </g>
    <g style="clip-path:url(#id27)">
     <image id="Layer_x0020_20" x="251" y="96" width="45.1969" height="76.878" xlink:href="Kung Fu_Images\Kung Fu_ImgID28.png"/>
    </g>
    <g style="clip-path:url(#id28)">
     <image id="Layer_x0020_15_x0020_copy" x="218" y="132" width="20.3425" height="7.67323" xlink:href="Kung Fu_Images\Kung Fu_ImgID29.png"/>
    </g>
    <g style="clip-path:url(#id29)">
     <image id="Layer_x0020_15_x0020_copy_x0020_2" x="216" y="137" width="20.4646" height="7.67323" xlink:href="Kung Fu_Images\Kung Fu_ImgID30.png"/>
    </g>
    <g style="clip-path:url(#id30)">
     <image id="Layer_x0020_9" x="126" y="73" width="74.0748" height="92.1063" xlink:href="Kung Fu_Images\Kung Fu_ImgID31.png"/>
    </g>
    <g style="clip-path:url(#id31)">
     <image id="Layer_x0020_10" x="156" y="112" width="33.748" height="34.9646" xlink:href="Kung Fu_Images\Kung Fu_ImgID32.png"/>
    </g>
    <g style="clip-path:url(#id32)">
     <image id="W" x="15" y="14" width="346" height="379" xlink:href="Kung Fu_Images\Kung Fu_ImgID33.png"/>
    </g>
    <g style="clip-path:url(#id33)">
     <image id="Layer_x0020_25" x="115" y="214" width="135.972" height="92.9606" xlink:href="Kung Fu_Images\Kung Fu_ImgID34.png"/>
    </g>
    <g style="clip-path:url(#id34)">
     <image id="Layer_x0020_34" x="257" y="237" width="34.7205" height="23.7559" xlink:href="Kung Fu_Images\Kung Fu_ImgID35.png"/>
    </g>
    <g style="clip-path:url(#id35)">
     <image id="Layer_x0020_37" x="131" y="244" width="137.677" height="46.5394" xlink:href="Kung Fu_Images\Kung Fu_ImgID36.png"/>
    </g>
    <g style="clip-path:url(#id36)">
     <image id="Layer_x0020_37_x0020_copy" x="141" y="248" width="116.476" height="35.8189" xlink:href="Kung Fu_Images\Kung Fu_ImgID37.png"/>
    </g>
    <g style="clip-path:url(#id37)">
     <image id="Layer_x0020_35" x="261" y="239" width="28.1417" height="12.1811" xlink:href="Kung Fu_Images\Kung Fu_ImgID38.png"/>
    </g>
    <g style="clip-path:url(#id38)">
     <image id="Layer_x0020_26" x="239" y="230" width="48.4921" height="14.374" xlink:href="Kung Fu_Images\Kung Fu_ImgID39.png"/>
    </g>
    <g style="clip-path:url(#id39)">
     <image id="Layer_x0020_27" x="204" y="55" width="158" height="140" xlink:href="Kung Fu_Images\Kung Fu_ImgID40.png"/>
    </g>
    <g style="clip-path:url(#id40)">
     <image id="Layer_x0020_38" x="154" y="254" width="89.7953" height="27.4134" xlink:href="Kung Fu_Images\Kung Fu_ImgID41.png"/>
    </g>
   </g>
  </g>
 </g>
</svg>
