<?xml version="1.0" encoding="UTF-8"?>
<!DOCTYPE svg PUBLIC "-//W3C//DTD SVG 1.1//EN" "http://www.w3.org/Graphics/SVG/1.1/DTD/svg11.dtd">
<!-- Creator: CorelDRAW X7 -->
<svg xmlns="http://www.w3.org/2000/svg" xml:space="preserve" width="5.82677in" height="8.26772in" version="1.1" style="shape-rendering:geometricPrecision; text-rendering:geometricPrecision; image-rendering:optimizeQuality; fill-rule:evenodd; clip-rule:evenodd"
viewBox="0 0 5827 8268"
 xmlns:xlink="http://www.w3.org/1999/xlink">
 <defs>
  <style type="text/css">
   <![CDATA[
    .fil8 {fill:url(#id0)}
    .fil10 {fill:url(#id1)}
    .fil9 {fill:url(#id2)}
    .fil0 {fill:url(#id3)}
    .fil12 {fill:url(#id4)}
    .fil17 {fill:url(#id5)}
    .fil18 {fill:url(#id6)}
    .fil2 {fill:url(#id7)}
    .fil1 {fill:url(#id8)}
    .fil4 {fill:url(#id9)}
    .fil6 {fill:url(#id10)}
    .fil5 {fill:url(#id11)}
    .fil14 {fill:url(#id12)}
    .fil13 {fill:url(#id13)}
    .fil11 {fill:url(#id14)}
    .fil16 {fill:url(#id15)}
    .fil15 {fill:url(#id16)}
    .fil7 {fill:url(#id17)}
    .fil3 {fill:url(#id18)}
   ]]>
  </style>
  <linearGradient id="id0" gradientUnits="userSpaceOnUse" x1="5204.72" y1="4239.85" x2="4397.17" y2="4239.85">
   <stop offset="0" style="stop-opacity:1; stop-color:#EC2224"/>
   <stop offset="0.658824" style="stop-opacity:1; stop-color:#B61B1D"/>
   <stop offset="1" style="stop-opacity:1; stop-color:#7F1416"/>
  </linearGradient>
  <linearGradient id="id1" gradientUnits="userSpaceOnUse" x1="5164.35" y1="4492.2" x2="4397.17" y2="4492.2">
   <stop offset="0" style="stop-opacity:1; stop-color:#FAF3A0"/>
   <stop offset="1" style="stop-opacity:1; stop-color:#8E5E25"/>
  </linearGradient>
  <linearGradient id="id2" gradientUnits="userSpaceOnUse" xlink:href="#id1" x1="5164.35" y1="3987.49" x2="4397.17" y2="3987.49">
  </linearGradient>
  <linearGradient id="id3" gradientUnits="userSpaceOnUse" x1="622.055" y1="4239.85" x2="1429.56" y2="4239.85">
   <stop offset="0" style="stop-opacity:1; stop-color:#EC2224"/>
   <stop offset="1" style="stop-opacity:1; stop-color:#7F1416"/>
  </linearGradient>
  <linearGradient id="id4" gradientUnits="userSpaceOnUse" x1="4599.06" y1="4128.8" x2="4195.29" y2="4128.8">
   <stop offset="0" style="stop-opacity:1; stop-color:#E51E26"/>
   <stop offset="0.4" style="stop-opacity:1; stop-color:#B2191E"/>
   <stop offset="1" style="stop-opacity:1; stop-color:#7F1416"/>
  </linearGradient>
  <linearGradient id="id5" gradientUnits="userSpaceOnUse" x1="1429.56" y1="3775.57" x2="4397.21" y2="3775.57">
   <stop offset="0" style="stop-opacity:1; stop-color:#FBF4A2"/>
   <stop offset="0.501961" style="stop-opacity:1; stop-color:#FFDE80"/>
   <stop offset="1" style="stop-opacity:1; stop-color:#FBF4A2"/>
  </linearGradient>
  <linearGradient id="id6" gradientUnits="userSpaceOnUse" xlink:href="#id5" x1="1429.56" y1="4280.26" x2="4397.21" y2="4280.26">
  </linearGradient>
  <linearGradient id="id7" gradientUnits="userSpaceOnUse" xlink:href="#id1" x1="662.453" y1="4492.2" x2="1429.56" y2="4492.2">
  </linearGradient>
  <linearGradient id="id8" gradientUnits="userSpaceOnUse" xlink:href="#id1" x1="662.453" y1="3987.49" x2="1429.56" y2="3987.49">
  </linearGradient>
  <linearGradient id="id9" gradientUnits="userSpaceOnUse" xlink:href="#id4" x1="1227.71" y1="4128.8" x2="1631.48" y2="4128.8">
  </linearGradient>
  <linearGradient id="id10" gradientUnits="userSpaceOnUse" xlink:href="#id1" x1="1227.71" y1="4371.08" x2="1631.48" y2="4371.08">
  </linearGradient>
  <linearGradient id="id11" gradientUnits="userSpaceOnUse" xlink:href="#id1" x1="1227.71" y1="3866.37" x2="1631.48" y2="3866.37">
  </linearGradient>
  <linearGradient id="id12" gradientUnits="userSpaceOnUse" xlink:href="#id1" x1="4599.09" y1="4371.08" x2="4195.33" y2="4371.08">
  </linearGradient>
  <linearGradient id="id13" gradientUnits="userSpaceOnUse" xlink:href="#id1" x1="4599.09" y1="3866.37" x2="4195.33" y2="3866.37">
  </linearGradient>
  <linearGradient id="id14" gradientUnits="userSpaceOnUse" x1="4397.17" y1="4179.3" x2="4599.03" y2="4179.3">
   <stop offset="0" style="stop-opacity:1; stop-color:#E8D661"/>
   <stop offset="1" style="stop-opacity:1; stop-color:#4C3012"/>
  </linearGradient>
  <linearGradient id="id15" gradientUnits="userSpaceOnUse" x1="1429.56" y1="4027.91" x2="4397.17" y2="4027.91">
   <stop offset="0" style="stop-opacity:1; stop-color:#BF2026"/>
   <stop offset="0.258824" style="stop-opacity:1; stop-color:#D62125"/>
   <stop offset="0.521569" style="stop-opacity:1; stop-color:#EC2224"/>
   <stop offset="0.760784" style="stop-opacity:1; stop-color:#D62125"/>
   <stop offset="1" style="stop-opacity:1; stop-color:#BF2026"/>
  </linearGradient>
  <linearGradient id="id16" gradientUnits="userSpaceOnUse" xlink:href="#id14" x1="4195.29" y1="4078.33" x2="4397.17" y2="4078.33">
  </linearGradient>
  <linearGradient id="id17" gradientUnits="userSpaceOnUse" xlink:href="#id14" x1="1631.42" y1="4078.33" x2="1429.56" y2="4078.33">
  </linearGradient>
  <linearGradient id="id18" gradientUnits="userSpaceOnUse" xlink:href="#id14" x1="1429.56" y1="4179.3" x2="1227.71" y2="4179.3">
  </linearGradient>
 </defs>
 <g id="Layer_x0020_1">
  <metadata id="CorelCorpID_0Corel-Layer"/>
  <g id="_904966880">
   <polygon class="fil0" points="1430,4543 1430,3937 622,3937 925,4240 622,4543 "/>
   <polygon class="fil1" points="1430,3977 662,3977 683,3998 1430,3998 "/>
   <polygon class="fil2" points="1430,4482 683,4482 662,4502 1430,4502 "/>
   <polygon class="fil3" points="1430,4533 1430,3927 1228,3826 1228,4432 "/>
   <polygon class="fil4" points="1228,4432 1631,4432 1631,3826 1228,3826 "/>
   <polygon class="fil5" points="1228,3876 1631,3876 1631,3856 1228,3856 "/>
   <polygon class="fil6" points="1228,4381 1631,4381 1631,4361 1228,4361 "/>
   <polygon class="fil7" points="1631,4432 1631,3826 1430,3725 1430,4331 "/>
   <polygon class="fil8" points="5205,3937 4397,3937 4397,4543 5205,4543 4902,4240 "/>
   <polygon class="fil9" points="5164,3977 4397,3977 4397,3998 5144,3998 "/>
   <polygon class="fil10" points="5144,4482 4397,4482 4397,4502 5164,4502 "/>
   <polygon class="fil11" points="4397,3927 4397,4533 4599,4432 4599,3826 "/>
   <polygon class="fil12" points="4195,4432 4599,4432 4599,3826 4195,3826 "/>
   <polygon class="fil13" points="4195,3876 4599,3876 4599,3856 4195,3856 "/>
   <polygon class="fil14" points="4195,4381 4599,4381 4599,4361 4195,4361 "/>
   <polygon class="fil15" points="4397,4331 4397,3725 4195,3826 4195,4432 "/>
   <polygon class="fil16" points="4397,4331 4397,3725 1430,3725 1430,4331 "/>
   <polygon class="fil17" points="4397,3786 4397,3765 1430,3765 1430,3786 "/>
   <polygon class="fil18" points="4397,4290 4397,4270 1430,4270 1430,4290 "/>
  </g>
 </g>
</svg>
