<?xml version="1.0" encoding="UTF-8"?>
<!DOCTYPE svg PUBLIC "-//W3C//DTD SVG 1.1//EN" "http://www.w3.org/Graphics/SVG/1.1/DTD/svg11.dtd">
<!-- Creator: CorelDRAW X7 -->
<svg xmlns="http://www.w3.org/2000/svg" xml:space="preserve" width="0.4in" height="0.4in" version="1.1" style="shape-rendering:geometricPrecision; text-rendering:geometricPrecision; image-rendering:optimizeQuality; fill-rule:evenodd; clip-rule:evenodd"
viewBox="0 0 400 400"
 xmlns:xlink="http://www.w3.org/1999/xlink">
 <defs>
  <style type="text/css">
   <![CDATA[
    .fil0 {fill:none}
    .fil2 {fill:#63513D}
    .fil4 {fill:#FEFEFE}
    .fil1 {fill:#FFCC29}
    .fil3 {fill:#847059;fill-rule:nonzero}
    .fil5 {fill:#FEFEFE;fill-rule:nonzero}
   ]]>
  </style>
    <clipPath id="id0">
     <path d="M40 66l285 -29c21,-2 40,13 42,34l27 257c2,21 -13,40 -34,42l-285 30c-21,2 -40,-13 -42,-35l-27 -256c-2,-21 13,-40 34,-43z"/>
    </clipPath>
 </defs>
 <g id="Layer_x0020_1">
  <metadata id="CorelCorpID_0Corel-Layer"/>
  <g id="_878292032">
   <rect class="fil0" width="400" height="400"/>
   <path class="fil1" d="M40 66l285 -29c21,-2 40,13 42,34l27 257c2,21 -13,40 -34,42l-285 30c-21,2 -40,-13 -42,-35l-27 -256c-2,-21 13,-40 34,-43z"/>
   <g style="clip-path:url(#id0)">
    <g>
     <path id="1" class="fil0" d="M47 92l275 -28c12,-1 23,7 24,19l26 245c1,12 -7,22 -19,24l-275 28c-12,1 -23,-8 -24,-20l-26 -245c-1,-11 7,-22 19,-23z"/>
     <polygon class="fil2" points="12,202 383,164 398,306 27,347 "/>
    </g>
   </g>
   <g>
    <path class="fil3" d="M325 38l-284 30 -1 -3 285 -30 0 3zm44 33l-3 0 0 0 0 -2 -1 -1 0 -2 -1 -2 0 -2 -1 -1 -1 -2 -1 -2 -1 -1 -1 -2 -1 -1 -1 -2 -1 -1 -1 -1 -1 -1 -2 -2 -1 -1 -2 -1 -1 -1 -2 0 -1 -1 -2 -1 -2 -1 -1 0 -2 -1 -2 0 -2 0 -1 -1 -2 0 -2 0 -2 0 -2 0 0 -3 2 0 2 0 2 0 2 0 2 1 2 0 2 0 2 1 1 1 2 0 2 1 2 1 1 1 2 1 2 1 1 1 2 1 1 2 1 1 2 2 1 1 1 2 1 1 1 2 1 2 1 1 0 2 1 2 1 2 0 2 0 2 1 2 0 0zm23 257l-26 -257 3 0 26 257 0 0 -3 0zm-32 44l-1 -3 0 0 2 0 2 -1 2 0 2 -1 1 0 2 -1 2 -1 1 0 2 -1 1 -1 2 -1 1 -2 2 -1 1 -1 1 -1 1 -2 1 -1 1 -1 1 -2 1 -2 1 -1 1 -2 0 -1 1 -2 0 -2 1 -2 0 -1 0 -2 1 -2 0 -2 0 -2 -1 -2 3 0 0 2 0 2 0 2 0 2 0 2 0 2 -1 2 0 2 -1 2 -1 1 0 2 -1 2 -1 2 -1 1 -1 2 -1 1 -2 2 -1 1 -1 1 -2 2 -1 1 -2 1 -2 1 -1 1 -2 1 -2 1 -2 1 -1 0 -2 1 -2 0 -2 1 -2 0 0 0zm-285 26l284 -29 1 3 -285 29 0 -3zm-44 -32l3 -1 0 0 0 2 1 2 0 2 1 2 0 1 1 2 1 2 1 1 1 2 1 1 1 2 1 1 1 2 1 1 1 1 2 1 1 1 2 1 1 1 2 1 1 1 2 1 2 0 1 1 2 0 2 1 2 0 1 0 2 0 2 1 2 -1 2 0 0 3 -2 0 -2 0 -2 0 -2 0 -2 0 -2 0 -2 -1 -2 0 -1 -1 -2 -1 -2 0 -2 -1 -1 -1 -2 -1 -2 -1 -1 -2 -2 -1 -1 -1 -1 -1 -2 -2 -1 -1 -1 -2 -1 -2 -1 -1 -1 -2 -1 -2 0 -2 -1 -1 -1 -2 0 -2 0 -2 -1 -2 0 0zm-23 -258l26 257 -3 1 -26 -257 0 0 3 -1zm32 -43l1 3 0 0 -2 0 -2 0 -2 1 -2 0 -1 1 -2 1 -2 0 -1 1 -2 1 -1 1 -2 1 -1 1 -2 1 -1 2 -1 1 -1 1 -1 2 -1 1 -1 2 -1 1 -1 2 -1 1 0 2 -1 2 0 2 -1 1 0 2 0 2 -1 2 0 2 1 2 0 1 -3 1 0 -2 0 -2 0 -2 0 -2 0 -2 0 -2 1 -2 0 -2 1 -2 1 -2 0 -1 1 -2 1 -2 1 -1 1 -2 2 -2 1 -1 1 -1 1 -2 2 -1 1 -1 2 -1 2 -1 1 -1 2 -1 2 -1 2 -1 1 0 2 -1 2 0 2 -1 2 0 0 0z"/>
   </g>
   <g>
    <path class="fil4" d="M118 45c-88,9 -67,149 18,109 16,8 60,19 80,1 19,-2 31,1 59,-22 63,13 55,-100 -21,-98 -1,1 -20,-42 -77,-34 -42,7 -59,44 -59,44z"/>
    <path id="1" class="fil3" d="M136 153l-1 3 1 0 -8 3 -7 2 -7 1 -7 1 -6 -1 -6 -1 -6 -2 -5 -3 -5 -3 -4 -4 -4 -4 -3 -5 -2 -5 -3 -6 -1 -5 -2 -6 0 -6 0 -6 0 -6 1 -7 1 -6 2 -6 3 -5 3 -6 4 -5 4 -5 5 -4 6 -4 6 -3 7 -3 7 -2 8 -1 1 3 -8 1 -7 2 -7 3 -6 3 -5 3 -5 4 -4 5 -3 5 -3 5 -3 6 -2 5 -1 6 -1 6 -1 6 1 6 0 5 1 6 2 5 2 6 3 5 3 4 3 4 4 4 4 3 5 2 5 2 6 1 6 1 6 0 7 -2 7 -2 8 -3 1 0zm-1 0l1 0 0 0 -1 0zm80 0l1 3 1 0 -2 1 -3 2 -2 1 -2 2 -3 1 -2 1 -3 0 -3 1 -2 0 -3 1 -3 0 -3 0 -3 0 -3 0 -3 0 -3 0 -3 -1 -3 0 -2 0 -3 -1 -3 0 -3 -1 -3 -1 -2 0 -3 -1 -2 -1 -2 -1 -2 0 -3 -1 -1 -1 -2 -1 -2 0 1 -3 2 1 2 0 1 1 2 1 3 1 2 0 2 1 3 1 2 0 3 1 3 1 2 0 3 1 3 0 3 1 3 0 2 0 3 0 3 0 3 0 3 0 3 0 2 0 3 -1 2 0 3 -1 2 -1 3 -1 2 -1 2 -1 2 -2 2 -1 0 -1zm0 1l0 -1 0 0 0 1zm60 -22l0 3 1 -1 -3 2 -2 2 -3 2 -2 2 -2 1 -2 2 -3 1 -2 1 -2 1 -2 1 -1 1 -2 1 -2 1 -2 0 -2 1 -1 0 -2 0 -2 1 -1 0 -2 0 -2 1 -1 0 -2 0 -2 0 -1 0 -2 0 -2 0 -1 1 -2 0 -2 0 -1 0 -2 0 -1 -3 2 0 2 0 2 0 2 0 1 -1 2 0 2 0 1 0 2 0 1 0 2 0 2 -1 1 0 2 0 1 0 2 -1 2 0 1 -1 2 0 2 -1 1 -1 2 0 2 -1 2 -1 2 -2 2 -1 2 -1 2 -2 3 -1 2 -2 2 -2 3 -2 1 0zm-1 0l0 0 1 0 -1 0zm-19 -96l-1 -2 0 0 7 0 7 1 6 1 6 2 6 3 5 2 4 4 4 4 4 4 4 4 3 4 2 5 2 5 2 5 1 5 1 5 1 5 0 5 -1 5 0 5 -2 4 -1 5 -2 4 -3 3 -3 3 -3 3 -4 2 -4 2 -5 1 -5 1 -6 0 -5 -1 0 -3 6 1 5 0 4 -1 5 -1 4 -1 3 -2 3 -3 3 -3 2 -3 2 -4 2 -4 1 -4 0 -4 1 -5 0 -5 -1 -4 -1 -5 -1 -5 -2 -5 -2 -4 -2 -5 -3 -4 -3 -5 -4 -3 -4 -4 -4 -3 -5 -3 -5 -2 -6 -2 -6 -1 -6 -1 -7 0 1 -1zm-1 -2l0 0 0 0 0 0zm-77 -32l0 -3 0 0 5 0 5 0 5 0 5 0 4 0 5 1 4 1 3 1 4 1 4 1 3 2 3 1 3 2 3 2 2 2 2 1 3 2 2 2 2 2 1 2 2 1 1 2 2 2 1 1 1 2 1 1 0 1 1 1 1 0 0 1 0 0 -1 0 1 2 -2 0 0 0 -1 -1 0 -1 -1 0 -1 -1 -1 -2 -1 -1 -1 -1 -1 -2 -1 -2 -2 -1 -1 -2 -2 -2 -2 -2 -2 -1 -3 -2 -2 -2 -3 -1 -2 -2 -3 -2 -4 -1 -3 -1 -3 -1 -4 -1 -4 -1 -4 -1 -4 0 -5 -1 -5 1 -5 0 -5 0 0 0zm0 -3l0 0 0 0 0 0zm-59 47l-1 -3 -1 1 0 0 0 -1 1 0 0 -1 1 -1 0 -1 1 -1 1 -1 1 -1 1 -2 1 -2 1 -1 1 -2 2 -2 2 -2 1 -2 2 -2 2 -2 2 -1 3 -2 2 -2 3 -2 2 -2 3 -2 3 -1 3 -2 3 -1 4 -2 3 -1 4 -1 4 -1 4 -1 0 3 -4 1 -3 1 -4 1 -3 1 -3 1 -4 2 -3 1 -2 2 -3 2 -3 1 -2 2 -2 2 -3 2 -2 2 -2 1 -2 2 -1 2 -2 2 -1 2 -2 1 -1 2 -1 2 -1 1 -1 1 -1 2 0 1 -1 1 0 1 -1 0 0 1 0 0 0 0 -1 1zm1 -1l0 1 -1 0 1 -1z"/>
   </g>
   <path class="fil1" d="M179 30c29,-4 56,16 60,45 4,29 -16,56 -45,60 -29,4 -56,-16 -60,-45 -4,-29 16,-56 45,-60z"/>
   <path class="fil5" d="M76 272l30 -4 -1 -14 -14 2 -1 -10 12 -1 -1 -14 -13 1 -1 -9 14 -1 -1 -14 -31 3 7 61zm57 -42l1 13 6 -1c1,1 1,2 1,3 -1,1 -1,2 -1,3 0,1 -1,2 -2,2 0,1 -1,1 -2,1 -1,1 -2,0 -3,0 -1,0 -1,-1 -2,-2 -1,-1 -1,-2 -1,-3 -1,-1 -1,-2 -1,-3 0,-1 -1,-2 -1,-3 0,-1 0,-2 0,-3 0,-1 0,-2 0,-3 -1,-1 -1,-2 -1,-4 0,-1 0,-3 0,-4 0,-1 1,-3 1,-4 0,-1 1,-2 2,-3 1,-1 2,-1 3,-1 1,0 1,0 2,0 0,1 1,1 1,2 1,0 1,1 2,2 0,0 0,1 0,2l15 -8c-1,-3 -3,-5 -5,-7 -2,-2 -5,-4 -8,-5 -3,-1 -6,-1 -9,-1 -3,0 -6,1 -8,2 -2,1 -4,3 -5,5 -2,1 -3,3 -4,5 -1,3 -2,5 -3,7 0,3 0,5 0,8 -1,2 0,5 0,8 0,3 1,6 2,9 0,3 2,5 3,8 1,2 3,5 5,6 2,2 5,4 7,4 3,1 6,1 10,1 3,0 6,-1 8,-2 2,-1 4,-3 6,-5 1,-2 2,-4 3,-6 1,-2 1,-5 2,-7 0,-3 0,-6 0,-8 0,-3 0,-5 -1,-8l0 -3 -23 3zm51 -6l2 13 6 0c0,1 0,1 0,3 0,1 0,2 -1,2 0,1 -1,2 -1,3 -1,0 -2,1 -3,1 -1,0 -2,0 -3,-1 -1,0 -1,-1 -2,-1 0,-1 -1,-2 -1,-3 0,-1 -1,-2 -1,-4 0,-1 0,-2 -1,-3 0,-1 0,-2 0,-2 0,-1 0,-2 0,-3 0,-2 0,-3 -1,-4 0,-2 0,-3 1,-4 0,-2 0,-3 0,-4 1,-2 1,-3 2,-3 1,-1 2,-2 3,-2 1,0 1,0 2,1 1,0 1,1 2,1 0,1 0,1 1,2 0,1 0,1 0,2l16 -8c-2,-2 -4,-5 -6,-7 -2,-2 -5,-3 -8,-4 -2,-1 -5,-2 -9,-1 -3,0 -5,1 -8,2 -2,1 -4,2 -5,4 -2,2 -3,4 -4,6 -1,2 -2,4 -2,7 -1,2 -1,5 -1,7 0,3 0,5 0,8 0,3 1,6 2,9 1,3 2,6 3,8 2,3 3,5 5,7 2,2 5,3 8,4 2,1 6,1 9,1 3,-1 6,-2 8,-3 3,-1 4,-2 6,-4 1,-2 2,-4 3,-7 1,-2 1,-4 2,-7 0,-2 0,-5 0,-8 0,-2 0,-5 0,-7l-1 -3 -23 2zm34 32l31 -3 -2 -14 -14 1 -1 -9 13 -1 -2 -15 -12 2 -1 -9 14 -1 -2 -15 -30 3 6 61zm84 -9l-15 -24c2,-1 4,-2 5,-4 1,-2 2,-3 3,-6 0,-2 0,-4 0,-6 -1,-4 -2,-7 -3,-10 -2,-2 -3,-4 -6,-5 -2,-2 -5,-2 -8,-3 -3,0 -6,0 -10,0l-16 2 7 61 16 -2 -2 -16c0,-1 0,-3 0,-4 0,-2 -1,-3 -1,-5l0 0 12 24 18 -2zm-30 -30l-2 -15c2,0 3,0 4,1 1,0 2,1 3,2 1,1 1,2 2,4 0,1 0,2 -1,3 0,1 0,2 -1,2 0,1 -1,2 -1,2 -1,1 -2,1 -3,1l-1 0zm34 28c2,1 4,1 6,2 2,0 4,0 6,0 3,-1 6,-2 8,-3 2,-1 4,-3 6,-5 1,-2 2,-4 3,-7 1,-2 1,-5 1,-8 -1,-2 -1,-4 -2,-6 0,-1 -1,-3 -2,-4 -2,-1 -3,-2 -4,-4 -2,-1 -3,-2 -5,-3 -1,0 -1,0 -2,-1 -1,0 -1,0 -2,-1 0,0 -1,-1 -1,-1 0,-1 -1,-1 -1,-2 0,-1 0,-2 1,-2 0,-1 1,-1 1,-2 1,0 2,0 2,0 1,0 2,0 3,0 1,0 2,1 3,1 1,1 2,1 3,2 0,1 1,2 2,2l-2 -18c-2,-1 -3,-1 -4,-1 -2,-1 -3,-1 -4,-1 -2,0 -3,0 -4,0 -3,0 -5,1 -7,2 -1,0 -3,2 -4,3 -1,1 -2,2 -3,4 -1,1 -2,3 -2,4 0,2 -1,4 -1,5 0,1 0,3 0,4 0,2 1,4 2,6 1,2 1,3 3,4 1,2 2,3 4,4 1,1 3,2 5,3 0,1 1,1 1,1 1,0 1,1 2,1 0,1 1,1 1,2 0,0 0,1 0,1 0,1 0,2 0,3 -1,0 -1,1 -2,1 -1,1 -1,1 -2,1 -1,0 -3,0 -4,-1 -2,0 -3,-1 -4,-2 -1,-1 -2,-2 -3,-3l2 19z"/>
   <path class="fil5" d="M121 321l-9 -40 -13 1 -2 15c0,1 0,2 0,3 0,2 0,3 0,4l0 0 -5 -21 -14 1 -1 42 12 -1 -1 -17c0,-2 0,-3 0,-5 0,-1 0,-3 0,-4l0 0 6 25 9 -1 2 -17c0,-2 0,-3 0,-5 0,-1 0,-3 0,-4l0 0 4 26 12 -2zm33 -3l-13 -41 -14 2 -5 42 11 -1 1 -5 7 -1 2 5 11 -1zm-20 -12l1 -10c0,-1 0,-3 0,-4 0,-1 0,-3 0,-4l0 0c0,1 1,3 1,4 0,1 1,2 1,4l2 9 -5 1zm24 11l10 -1c1,0 2,0 3,0 2,-1 3,-1 4,-2 2,0 3,-1 4,-2 1,-1 2,-3 3,-4 1,-2 2,-4 2,-6 0,-3 0,-5 0,-8 0,-4 -1,-6 -2,-9 -1,-2 -3,-4 -5,-6 -1,-1 -4,-3 -6,-3 -3,-1 -5,-1 -9,-1l-9 1 5 41zm8 -32c1,0 2,0 2,1 1,0 2,1 2,1 1,1 1,2 2,3 0,1 0,1 0,2 1,1 1,2 1,3 0,1 0,2 0,3 0,1 0,2 0,3 0,1 -1,1 -1,2 0,1 -1,2 -2,2 0,1 -1,1 -2,1l-2 -21zm53 26l-4 -41 -11 1 1 14 -5 1 -2 -15 -11 2 5 41 11 -2 -2 -16 5 -1 2 17 11 -1zm3 -21c1,1 1,3 1,5 1,1 1,3 2,4 1,2 2,3 3,5 1,1 2,2 3,3 1,1 3,1 4,2 2,0 4,0 5,0 2,0 4,-1 5,-1 2,-1 3,-2 4,-3 1,-1 2,-3 3,-4 0,-2 1,-3 1,-5 1,-1 1,-3 1,-5 0,-1 0,-3 0,-5 0,-2 -1,-3 -1,-5 -1,-2 -1,-3 -2,-5 -1,-1 -1,-3 -2,-4 -1,-1 -2,-2 -4,-3 -1,-1 -2,-2 -4,-2 -2,-1 -3,-1 -5,0 -2,0 -4,0 -5,1 -2,1 -3,2 -4,3 -1,1 -2,2 -3,4 0,1 -1,3 -1,4 0,2 -1,4 -1,5 0,2 0,4 0,6zm12 -2c0,0 0,-1 0,-1 0,-1 0,-2 0,-3 0,-1 0,-1 0,-2 0,-1 0,-2 0,-3 0,0 1,-1 1,-1 1,-1 1,-1 2,-1 1,0 1,0 2,0 0,1 1,1 1,2 1,0 1,1 1,2 0,1 1,2 1,2 0,1 0,2 0,3 0,0 0,1 0,1 1,1 1,1 1,2 0,1 0,2 0,2 0,1 0,2 0,3 -1,1 -1,1 -1,2 0,1 -1,1 -1,2 0,0 -1,1 -2,1 0,0 -1,0 -2,-1 0,0 -1,-1 -1,-1 0,-1 -1,-2 -1,-2 0,-1 0,-2 -1,-3 0,-1 0,-1 0,-2 0,-1 0,-1 0,-2zm40 -25l2 26c0,1 0,1 0,2 1,1 1,1 0,2 0,0 0,1 0,1 -1,1 -1,1 -2,1 -1,0 -1,0 -2,0 0,-1 0,-1 -1,-2 0,0 0,-1 0,-2 0,0 0,-1 0,-1l-3 -26 -11 1 3 27c0,1 0,2 0,3 0,1 1,2 1,3 0,1 1,2 2,3 0,1 1,2 3,3 1,0 2,1 4,1 1,1 3,1 5,0 2,0 4,0 6,-1 1,-1 2,-1 3,-2 1,-1 2,-2 2,-4 1,-1 1,-2 1,-3 1,-1 1,-2 1,-3 0,-1 0,-2 0,-3l-3 -27 -11 1zm20 39c2,0 3,0 4,0 2,1 3,1 5,0 2,0 3,0 5,-1 1,-1 3,-2 4,-4 1,-1 2,-3 2,-4 0,-2 1,-4 0,-6 0,-1 0,-3 -1,-4 0,-1 -1,-2 -1,-3 -1,-1 -2,-1 -3,-2 -1,-1 -2,-1 -3,-2 -1,0 -1,-1 -2,-1 0,0 0,0 -1,-1 0,0 0,0 -1,-1 0,0 0,0 0,-1 0,0 0,-1 0,-1 1,-1 1,-1 1,-1 1,0 1,-1 2,-1 0,0 1,0 2,1 0,0 1,0 2,0 0,1 1,1 1,2 1,0 1,1 2,1l-2 -12c0,-1 -1,-1 -2,-1 -1,0 -2,-1 -3,-1 -1,0 -2,0 -3,0 -1,1 -3,1 -4,1 -1,1 -2,2 -3,3 -1,0 -2,1 -2,2 -1,1 -1,2 -1,3 -1,2 -1,3 -1,4 0,1 0,1 0,2 0,2 1,3 1,4 1,1 1,2 2,3 1,1 2,2 3,3 1,0 2,1 3,2 1,0 1,0 1,1 1,0 1,0 1,0 1,1 1,1 1,1 0,1 0,1 0,1 0,1 0,2 0,2 0,0 -1,1 -1,1 -1,0 -1,0 -2,1 -1,0 -2,0 -2,-1 -1,0 -2,-1 -3,-1 -1,-1 -2,-2 -2,-2l1 13zm27 -2l21 -3 -1 -9 -10 1 0 -7 8 0 -1 -10 -8 1 -1 -6 9 -1 -1 -10 -20 3 4 41z"/>
  </g>
 </g>
</svg>
