<?xml version="1.0" encoding="UTF-8"?>
<!DOCTYPE svg PUBLIC "-//W3C//DTD SVG 1.1//EN" "http://www.w3.org/Graphics/SVG/1.1/DTD/svg11.dtd">
<!-- Creator: CorelDRAW X7 -->
<svg xmlns="http://www.w3.org/2000/svg" xml:space="preserve" width="0.4in" height="0.4in" version="1.1" style="shape-rendering:geometricPrecision; text-rendering:geometricPrecision; image-rendering:optimizeQuality; fill-rule:evenodd; clip-rule:evenodd"
viewBox="0 0 400 400"
 xmlns:xlink="http://www.w3.org/1999/xlink">
 <defs>
  <style type="text/css">
   <![CDATA[
    .fil0 {fill:none}
    .fil4 {fill:#FAD32A;fill-rule:nonzero}
    .fil2 {fill:#33365A;fill-rule:nonzero}
    .fil1 {fill:#33365A;fill-rule:nonzero}
    .fil5 {fill:#E22F6F;fill-rule:nonzero}
    .fil3 {fill:#FAD32A;fill-rule:nonzero}
   ]]>
  </style>
 </defs>
 <g id="Layer_x0020_1">
  <metadata id="CorelCorpID_0Corel-Layer"/>
  <rect class="fil0" width="400" height="400"/>
  <g id="_924188752">
   <path class="fil1" d="M107 205c1,0 3,0 4,0l-2 0 -4 1 -1 0c0,0 0,0 -1,0 0,0 -1,1 -2,1 2,-1 4,-2 6,-2zm31 12c-2,-4 -5,-6 -9,-6 -3,0 -4,0 -6,1 -1,2 -2,3 -3,5 0,0 -1,1 -2,2l0 0c0,0 0,0 0,0 0,0 -1,0 -1,0 0,0 0,0 0,0 0,1 -1,1 -1,2 0,0 0,0 0,0 -1,0 -2,0 -2,1 -1,0 -1,0 -1,0l0 0c-3,2 -7,3 -10,4 -1,0 -2,0 -2,0 -2,0 -3,0 -4,-1 0,0 0,0 0,0 0,0 0,0 0,0 2,-1 4,-2 7,-2 2,-1 6,-2 9,-2 2,-1 4,-2 4,-3 0,0 0,0 0,0 1,-1 1,-1 1,-1 1,-1 1,-3 1,-5 -1,-2 -2,-4 -3,-5l-1 -2 4 0c0,0 1,0 1,0 4,0 8,-3 8,-7 1,-4 -2,-8 -6,-10 0,0 -1,0 -2,0 0,0 0,0 0,0l0 -1 5 -1c5,0 9,-5 8,-10 0,-4 -4,-7 -9,-7 0,0 -1,0 -1,0l-50 6c-5,1 -8,5 -7,10 0,5 4,8 8,8 1,0 1,0 2,0l12 -2c-4,2 -6,4 -9,6 -2,3 -4,7 -3,11 0,2 1,4 3,6 0,0 0,0 0,0 0,0 0,0 0,0 -4,3 -5,7 -4,12 0,3 2,7 9,10 4,2 8,3 14,4 2,0 4,0 6,0 3,0 5,0 7,0 4,-1 8,-2 12,-3 4,-1 7,-4 11,-7 5,-3 6,-8 4,-13z"/>
   <path class="fil2" d="M38 215c1,1 3,2 4,2 1,0 2,0 3,0 0,0 1,0 2,0 2,-1 4,-2 7,-3 2,-2 4,-4 5,-6 1,-2 2,-4 3,-6 0,-2 0,-3 0,-4 0,0 0,-1 -1,-2 0,0 -1,-1 -2,-2 -1,0 -1,0 -2,0 0,0 0,0 -1,0 -1,0 -3,1 -5,3 -3,2 -5,4 -7,7 -2,3 -4,5 -5,8 -1,2 -1,3 -1,3 0,0 0,0 0,0zm-3 60c-5,0 -10,-3 -11,-8l-15 -73c0,-3 0,-6 2,-8 2,-2 4,-4 7,-5l0 0c1,0 1,0 2,0 5,0 9,3 10,7 2,-2 4,-5 7,-7 3,-2 6,-4 9,-5 1,0 2,0 3,0 2,0 5,0 7,1 4,1 7,3 10,5 4,2 7,5 9,8 3,4 4,7 5,11 1,6 0,11 -2,16 -2,5 -5,9 -9,13 -4,3 -8,5 -12,6 -2,0 -3,1 -4,1l0 0c-3,0 -7,-1 -10,-3 -1,0 -2,-1 -4,-2l6 31c2,5 -2,11 -8,12l0 0c-1,0 -2,0 -2,0z"/>
   <path class="fil2" d="M67 203c-1,3 -2,6 -3,8 -2,3 -4,5 -7,7 -3,2 -6,4 -9,4 -2,1 -5,1 -7,0 -2,0 -4,-1 -6,-2 -1,-1 -2,-2 -2,-3 -1,-2 0,-4 1,-7 1,-3 3,-6 6,-9 2,-3 4,-6 7,-8 3,-3 6,-4 8,-5 3,0 5,0 6,1 2,1 4,3 5,4 1,2 1,3 2,4 0,2 0,4 -1,6zm-4 -16c-3,-2 -6,-3 -9,-4 -2,-1 -5,-2 -7,-1 -2,0 -5,1 -7,3 -2,2 -4,5 -6,7 -2,2 -3,4 -4,6 -1,2 -2,3 -3,4l-2 -11c0,-3 -3,-5 -6,-4l0 0c-3,0 -5,3 -4,6l15 73c0,3 3,4 6,4l0 0c3,-1 4,-3 4,-6l-9 -43c6,4 10,6 14,8 4,2 7,2 10,2 4,-1 7,-3 10,-5 4,-3 6,-7 8,-11 2,-4 2,-8 2,-13 -1,-3 -2,-5 -4,-8 -3,-3 -5,-5 -8,-7z"/>
   <path class="fil1" d="M10 190c-5,0 -9,-4 -10,-8l0 0c-1,-5 2,-10 8,-11l58 -12c1,0 2,-1 2,-1 5,0 9,4 10,8l0 0c1,5 -3,10 -8,11l-58 12c-1,1 -2,1 -2,1l0 0z"/>
   <path class="fil2" d="M68 164l-59 12c-2,1 -4,3 -3,5l0 0c0,2 2,3 4,3l59 -12c2,0 4,-3 3,-5l0 0c0,-2 -2,-3 -4,-3z"/>
   <path class="fil2" d="M133 219c-1,-2 -4,-3 -6,-2 -3,5 -3,5 -8,8 -5,3 -9,6 -16,6 -3,1 -5,1 -8,0 -2,-1 -4,-3 -4,-5 -1,-2 1,-4 3,-6 2,-1 5,-2 9,-3 3,-1 6,-1 8,-1l0 0c2,-1 2,-2 2,-3 0,-1 -1,-2 -2,-2l0 0c0,0 0,0 0,0 0,0 0,0 0,0l0 0c-1,0 -2,0 -3,0 -2,1 -3,1 -4,1 -8,1 -12,0 -12,-3 -1,-2 1,-5 4,-6 4,-2 7,-3 10,-4 5,0 9,0 14,1l0 0c1,0 3,-1 3,-3 0,-1 -1,-3 -2,-3l0 0c-1,0 -3,-1 -4,-1 0,0 -1,0 -2,0l-1 -11 0 0 11 -1c1,0 3,-2 3,-4 -1,-2 -2,-3 -4,-3l-50 7c-2,0 -3,2 -3,4 0,1 2,3 4,2l28 -3 2 -1 2 9c-3,0 -6,1 -9,2 -2,0 -5,1 -8,2 -3,2 -5,3 -6,5 -2,2 -3,4 -2,6 0,1 0,2 1,3 0,0 1,1 2,1 1,1 3,1 4,2 -2,2 -5,3 -6,5 -2,2 -3,4 -3,7 1,3 3,5 6,6 3,2 7,3 12,3 5,1 9,1 12,0 4,0 7,-1 11,-2 3,-1 7,-3 10,-6l0 0c2,-1 3,-4 2,-7z"/>
   <path class="fil1" d="M153 232c-4,0 -7,0 -10,-2 -4,-2 -7,-5 -9,-8 -2,-3 -3,-6 -3,-10l-3 -43 -8 0c0,0 0,0 0,0 -5,0 -10,-4 -10,-9l0 0c0,-2 1,-5 2,-7 2,-2 4,-3 7,-3l8 0 0 -14c-1,-6 4,-11 10,-11l1 0c0,0 0,0 0,0 6,0 11,4 12,10l0 2 0 0 1 11 26 -1c0,0 0,0 0,0 5,0 9,4 10,9l0 0c0,3 -1,5 -3,7 -1,2 -4,3 -6,3l-24 2 -2 0 2 46 0 0 0 2c0,0 0,1 1,1 3,-2 2,-8 3,-11 0,-1 0,-2 0,-2 1,-1 1,-2 1,-3 2,-4 7,-6 11,-6 1,0 2,0 3,0 5,2 8,5 9,10l2 1c-1,1 -2,3 -2,4 -1,2 -2,4 -3,6 -1,3 -4,7 -7,9 -4,5 -10,7 -18,7l0 0c0,0 -1,0 -1,0z"/>
   <path class="fil2" d="M177 152l-32 2 -1 -13 0 -1 0 -5c0,-3 -3,-5 -6,-5l0 0c-4,0 -6,3 -6,6l1 19 -14 1c-2,0 -3,2 -3,4l0 0c0,2 2,4 4,4l9 -1 5 0 0 5 2 44c0,2 1,5 3,7 2,2 4,4 6,6 3,1 6,2 9,2 6,0 11,-2 15,-6 3,-3 6,-7 8,-12l0 0c0,0 0,0 0,0 0,0 0,0 0,0l0 0c0,-4 -2,-7 -5,-8 -4,-1 -8,1 -9,4l0 0c0,0 0,0 0,0 0,0 0,0 0,0l0 0c0,12 -3,17 -9,18 -1,0 -2,-1 -4,-2 -1,-2 -1,-3 -2,-5l0 -7 0 0 -2 -46 0 0 7 -1 24 -1c2,0 4,-2 4,-5l0 0c0,-2 -2,-4 -4,-4z"/>
   <path class="fil1" d="M221 180c-1,0 -3,0 -6,0 -3,1 -6,2 -9,4 -4,2 -7,5 -9,8 -2,3 -4,6 -4,10 -1,1 0,2 0,4 1,1 2,2 4,4 1,1 2,1 4,1 0,1 1,1 1,1 2,0 4,-1 6,-1 4,-1 7,-3 10,-5 3,-1 6,-4 9,-7 2,-2 3,-5 3,-8 1,-3 1,-5 0,-6 -1,-2 -3,-3 -4,-4 -2,-1 -3,-1 -3,-1 -1,0 -1,0 -2,0zm-5 53c-2,0 -4,0 -6,-1 -4,0 -9,-2 -14,-5 -4,-3 -8,-6 -12,-11 -4,-4 -7,-9 -9,-14 -2,-5 -3,-11 -2,-16 0,-4 2,-9 6,-13 3,-5 8,-9 14,-11 0,-1 1,-1 2,-1l-9 -2c-5,0 -8,-5 -8,-10l0 -1c1,-4 5,-7 10,-7 0,0 0,0 1,0l59 8c5,1 9,6 8,11l0 0c-1,5 -5,8 -9,8 -1,0 -1,0 -1,0l-5 -1 -1 6c0,1 1,2 2,3 2,2 4,5 6,8 1,2 2,4 3,8 0,3 0,7 0,12 -1,6 -4,11 -8,16 -3,5 -8,8 -14,11 -4,1 -9,2 -13,2l0 0z"/>
   <path class="fil2" d="M231 203c-3,3 -6,6 -10,8 -4,2 -7,4 -11,5 -4,1 -7,1 -10,1 -2,0 -5,-1 -7,-3 -2,-2 -4,-4 -5,-6 -1,-2 -1,-4 -1,-6 1,-6 3,-10 6,-14 2,-3 6,-6 10,-9 4,-2 8,-3 11,-4 4,-1 7,-1 9,-1 2,0 4,1 6,2 2,2 4,3 5,6 2,3 2,6 2,9 -1,5 -2,9 -5,12zm14 -10c0,-3 -1,-5 -2,-6 -2,-3 -3,-5 -5,-7 -2,-2 -3,-3 -4,-4l2 -15 0 0 10 1c2,1 4,-1 4,-3l1 0c0,-2 -2,-4 -4,-4l-59 -9c-2,0 -4,1 -4,3l0 1c0,2 1,4 3,4l38 5 0 0 -1 9c-1,0 -1,0 -2,0 -3,-2 -7,-3 -10,-3 -7,-1 -12,-1 -17,2 -5,2 -9,5 -12,9 -2,4 -4,7 -5,11 0,4 0,8 2,13 2,4 5,9 8,13 3,3 7,7 11,9 4,3 8,4 12,5 6,1 11,0 16,-2 5,-2 9,-4 12,-8 3,-4 5,-9 6,-14 1,-4 1,-7 0,-10z"/>
   <path class="fil3" d="M66 203c-1,3 -2,6 -4,8 -1,3 -3,5 -6,7 -3,2 -6,4 -9,4 -3,1 -5,1 -7,0 -2,0 -4,-1 -6,-2 -1,-1 -2,-2 -3,-3 0,-2 1,-4 2,-7 1,-3 3,-6 5,-9 3,-3 5,-6 8,-8 3,-3 6,-4 8,-5 3,0 5,0 6,1 2,1 4,3 5,4 1,2 1,3 2,4 0,2 0,4 -1,6zm-4 -16c-3,-2 -6,-3 -9,-4 -3,-1 -5,-2 -7,-1 -2,0 -5,1 -7,3 -2,2 -4,5 -6,7 -2,2 -3,4 -4,6 -1,2 -2,3 -3,4l-2 -11c-1,-3 -3,-5 -6,-4l0 0c-3,0 -5,3 -4,6l15 73c0,3 3,4 6,4l0 0c3,-1 4,-3 4,-6l-9 -43c6,4 10,6 14,8 4,2 7,2 10,2 4,-1 7,-3 10,-5 4,-3 6,-7 8,-11 2,-4 2,-8 1,-13 0,-3 -1,-5 -4,-8 -2,-3 -4,-5 -7,-7z"/>
   <path class="fil4" d="M66 164l-58 12c-2,1 -4,3 -3,5l0 0c0,2 2,3 4,3l59 -12c2,0 4,-3 3,-5l0 0c0,-2 -2,-3 -5,-3z"/>
   <path class="fil3" d="M132 219c-1,-2 -4,-3 -7,-2 -2,5 -2,5 -7,8 -5,3 -10,6 -16,6 -3,1 -5,0 -8,0 -3,-1 -4,-3 -4,-5 -1,-2 0,-4 3,-6 2,-1 5,-2 9,-3 3,-1 6,-1 8,-1l0 0c1,-1 2,-2 2,-3 0,-1 -1,-2 -2,-2l0 0c0,0 -1,0 -1,0 0,0 0,0 0,0l0 0c0,0 -1,0 -3,0 -1,1 -2,1 -3,1 -8,1 -12,0 -13,-3 0,-2 2,-5 5,-6 4,-2 7,-3 10,-4 5,0 9,0 13,1l0 0c2,0 4,-1 4,-3 0,-1 -1,-3 -3,-3l0 0c0,0 -2,-1 -3,-1 0,0 -1,0 -2,0l-2 -11 1 0 11 -1c1,0 3,-2 2,-4 0,-2 -1,-3 -3,-3l-50 7c-2,0 -3,2 -3,4 0,1 2,3 4,2l28 -3 2 -1 1 9c-2,0 -5,1 -8,2 -3,0 -5,1 -8,2 -3,2 -5,3 -7,5 -1,2 -2,4 -2,6 1,1 1,2 2,3 0,0 1,1 2,1 1,1 2,1 4,2 -3,2 -5,3 -7,5 -1,2 -2,4 -2,7 1,3 2,5 6,6 3,2 7,3 12,3 5,1 9,1 12,0 4,0 7,-1 11,-2 3,-1 6,-3 10,-6l0 0c2,-2 3,-4 2,-7z"/>
   <path class="fil3" d="M176 152l-32 2 -1 -13 0 -1 0 -5c0,-3 -3,-5 -6,-5l0 0c-4,0 -6,3 -6,6l1 19 -14 1c-2,0 -3,2 -3,4l0 0c0,2 2,4 4,4l9 -1 5 0 0 5 2 44c0,2 1,5 3,7 1,2 4,4 6,6 3,1 6,2 9,2 6,0 11,-2 14,-6 4,-3 7,-7 9,-12l0 0c0,0 0,0 0,0 0,0 0,0 0,0l0 0c0,-4 -2,-7 -6,-8 -3,-1 -7,1 -8,4l0 0c0,0 0,0 0,0 0,0 0,0 0,0l0 0c0,12 -3,17 -9,18 -1,0 -3,-1 -4,-2 -1,-2 -2,-3 -2,-5l0 -7 0 0 -2 -46 0 0 7 -1 24 -1c2,0 4,-2 4,-5l0 0c0,-2 -2,-4 -4,-4z"/>
   <path class="fil3" d="M230 203c-3,3 -6,6 -10,8 -4,2 -7,4 -11,5 -4,1 -7,1 -10,1 -2,0 -5,-1 -7,-3 -2,-2 -4,-4 -5,-6 -1,-2 -1,-4 -1,-6 1,-6 3,-10 5,-14 3,-3 7,-6 11,-9 4,-2 7,-3 11,-4 4,-1 7,-1 9,-1 2,0 4,1 6,2 2,2 4,3 5,6 2,3 2,6 2,9 -1,5 -3,9 -5,12zm14 -10c0,-3 -1,-5 -2,-6 -2,-3 -3,-5 -5,-7 -2,-2 -3,-3 -4,-4l2 -15 0 0 10 1c2,1 4,-1 4,-3l0 0c1,-2 -1,-4 -3,-4l-59 -9c-2,0 -4,1 -4,3l0 1c-1,2 1,4 3,4l38 5 0 0 -1 9c-1,0 -2,0 -2,0 -4,-2 -7,-3 -10,-3 -7,-1 -12,-1 -17,2 -5,2 -9,5 -12,9 -3,4 -4,7 -5,11 0,4 0,8 2,13 2,4 4,9 8,13 3,3 7,7 11,9 4,3 8,4 12,5 5,1 11,0 16,-2 5,-2 9,-4 12,-8 3,-5 5,-9 6,-14 1,-4 1,-7 0,-10z"/>
   <path class="fil1" d="M293 184c-2,0 -4,0 -6,0 -4,1 -8,2 -13,4 -4,2 -8,5 -11,9 -3,4 -5,8 -7,13 0,2 0,3 1,5 1,2 2,4 4,6 2,1 4,2 6,3 1,0 2,0 3,0 2,0 4,0 7,-1 4,-1 8,-2 12,-4 5,-2 8,-5 11,-9 3,-3 5,-6 6,-11 1,-3 1,-5 0,-8 -2,-2 -3,-4 -5,-5 -2,-2 -4,-2 -4,-2 -1,0 -3,0 -4,0zm-6 64c-3,0 -7,0 -10,-1 -5,-1 -10,-3 -16,-7 -5,-4 -10,-9 -14,-14 -5,-6 -8,-12 -10,-18 -2,-6 -2,-13 -1,-19 1,-5 4,-10 8,-15 5,-5 11,-9 18,-12 1,-1 3,-2 5,-2l-14 -3c-6,-1 -10,-6 -8,-12l0 -1c1,-4 5,-8 10,-8 0,0 1,0 2,0l74 15c2,0 5,2 6,4 2,3 2,5 2,8l-1 1c0,4 -5,8 -10,8 0,0 -1,0 -1,0l-9 -2 -2 9c1,1 2,3 3,4 3,3 5,6 7,10 1,2 2,5 2,10 1,4 1,8 0,13 -2,8 -5,14 -10,19 -5,6 -12,10 -19,12 -4,1 -8,1 -12,1z"/>
   <path class="fil2" d="M312 201c-1,5 -4,9 -7,13 -4,4 -8,7 -13,10 -5,2 -10,4 -14,5 -5,1 -9,1 -12,0 -3,-1 -6,-2 -9,-4 -2,-2 -4,-5 -5,-8 -1,-3 -2,-5 -1,-8 1,-6 4,-12 8,-16 4,-4 8,-8 13,-10 5,-2 10,-4 14,-5 5,0 9,0 12,0 2,1 4,2 6,4 3,1 5,4 7,7 1,3 2,7 1,12zm16 -35c2,1 4,-1 5,-4l0 0c1,-3 -1,-5 -4,-6l-73 -14c-3,-1 -5,1 -6,4l0 0c0,3 1,5 4,6l47 9 -2 10c-1,0 -2,0 -3,-1 -4,-2 -8,-3 -12,-4 -7,-2 -14,-2 -20,1 -6,2 -11,6 -15,10 -4,5 -7,9 -8,13 -1,5 0,11 2,16 1,6 4,11 8,16 4,6 8,10 13,13 5,4 10,6 14,7 7,1 13,1 20,-1 6,-2 11,-5 16,-9 4,-5 7,-11 8,-17 1,-4 1,-8 1,-12 -1,-3 -1,-6 -2,-8 -2,-3 -4,-6 -6,-9 -2,-2 -3,-3 -5,-5l4 -18 14 3z"/>
   <path class="fil5" d="M311 201c-2,5 -4,9 -8,13 -3,4 -7,7 -12,10 -5,2 -10,4 -15,5 -4,1 -8,1 -11,0 -3,-1 -6,-2 -9,-4 -2,-2 -4,-5 -5,-8 -1,-3 -2,-5 -1,-8 1,-6 4,-12 8,-16 4,-4 8,-8 13,-10 5,-2 10,-4 14,-5 5,0 9,0 12,0 1,1 4,2 6,4 3,1 5,4 7,7 1,3 2,7 1,12zm15 -35c3,1 5,-1 6,-4l0 0c0,-3 -1,-5 -4,-6l-74 -14c-2,-1 -5,1 -5,4l0 0c-1,3 1,5 3,6l48 9 -2 10c-1,0 -2,0 -3,-1 -4,-2 -8,-3 -12,-4 -7,-2 -14,-2 -20,1 -7,2 -12,6 -15,10 -4,5 -7,9 -8,13 -1,5 0,11 1,16 2,6 5,11 9,16 4,6 8,10 13,13 5,4 10,6 14,7 7,1 13,1 20,-1 6,-2 11,-5 15,-9 5,-5 8,-11 9,-17 1,-4 1,-8 1,-12 -1,-3 -1,-6 -2,-8 -2,-3 -4,-6 -6,-9 -2,-2 -3,-3 -5,-5l4 -18 13 3z"/>
   <path class="fil1" d="M364 260c-2,0 -4,-1 -5,-1 -5,-1 -8,-3 -11,-5 -3,-2 -6,-4 -8,-6 0,0 -1,-1 -1,-1 -1,0 -2,0 -2,1 -2,0 -4,1 -6,1 -2,0 -4,-1 -7,-1l0 0 0 0c-3,-1 -5,-3 -7,-5 -4,-3 -5,-7 -4,-11 1,-3 4,-8 11,-9 2,-1 4,-1 7,-1 2,0 4,0 7,1 0,0 0,0 1,0l14 -10c-1,0 -2,0 -3,0 -2,-1 -4,-1 -6,-1 -2,0 -4,-1 -6,-1 -1,0 -2,0 -3,0l0 0c-1,0 -1,0 -2,0 0,0 0,0 0,0 -1,0 -1,0 -1,0 -1,0 -2,0 -3,-1 -1,0 -1,0 -1,0 -1,-1 -1,-1 -2,-2l5 -3 -5 3c-2,-3 -1,-6 0,-7 0,-1 0,-1 0,-1l1 -1c0,0 4,-4 4,-5l0 0 -2 -1c-5,-1 -8,-6 -6,-11l0 -1c1,-4 5,-7 9,-7 1,0 1,0 2,1l59 16c3,0 5,2 6,4 1,2 1,5 1,7l0 1c-2,4 -5,7 -10,7l0 0c0,0 0,0 -1,-1 0,3 -2,5 -2,6 0,0 0,0 -1,0l-30 21c1,0 2,1 3,2 2,1 4,2 6,3 1,0 3,0 4,0 0,0 0,0 1,0 0,0 0,0 0,0 0,-1 1,-1 1,-1 2,-3 4,-3 5,-3 2,0 3,1 5,2 1,3 1,6 0,7 0,3 -2,6 -4,8 -2,2 -5,4 -8,5 -2,0 -3,1 -5,1z"/>
   <path class="fil2" d="M392 196l-59 -16c-2,0 -4,1 -5,3l0 0c-1,2 1,4 3,5l7 2 -2 6c0,1 0,1 0,1 -1,1 -2,2 -2,3 -1,1 -2,2 -2,2 -1,1 -1,1 -1,1 0,1 0,1 0,1 -1,0 0,0 0,1 0,0 0,0 0,0 1,0 1,1 1,1 0,0 0,0 0,0 1,0 1,0 1,0 1,0 1,0 2,0 1,0 2,0 3,0 3,0 5,0 7,0 2,0 4,1 6,1 7,1 12,2 15,3l-27 19c-1,0 -2,-1 -3,-1 -3,-1 -7,-1 -11,0 -3,1 -5,3 -6,6 -1,2 0,3 2,5 1,2 3,3 5,3 3,1 6,1 9,0 2,0 4,-1 5,-2 1,1 2,2 4,4 2,2 4,4 7,5 2,2 6,3 9,4 3,1 5,1 8,0 2,0 4,-1 5,-3 2,-1 3,-3 3,-5 0,-1 1,-4 -1,-2 0,1 -1,1 -1,2 -1,1 -2,1 -3,1 -2,1 -5,1 -7,0 -3,-1 -6,-2 -8,-3 -2,-2 -5,-4 -6,-5 -2,-2 -3,-3 -3,-3 0,0 0,0 0,0 0,0 0,0 0,-1 1,0 1,0 1,0 1,0 1,-1 1,-1 1,0 1,0 2,-1 0,0 1,0 1,-1 1,0 1,0 2,-1 0,0 1,-1 2,-1 0,0 1,-1 2,-1 0,-1 1,-1 2,-2 0,0 1,-1 2,-1 0,-1 1,-1 2,-2 1,0 1,-1 2,-1 1,-1 1,-1 2,-2 1,0 2,0 2,-1 1,0 2,-1 2,-1 1,-1 2,-1 2,-2 1,0 2,-1 2,-1 1,0 1,-1 2,-1 0,0 1,-1 1,-1 1,0 1,-1 2,-1 0,0 0,0 1,-1 0,0 0,0 1,0 0,0 0,-1 0,-1 0,0 0,0 0,0 0,0 0,0 0,0 0,-1 0,-1 0,-1 0,0 0,0 0,-1 0,0 0,0 0,0 0,0 0,0 0,0 -1,0 -1,0 -1,0 0,0 -1,0 -1,0 -1,-1 -1,-1 -1,-1 -1,0 -2,0 -2,0 -1,0 -1,-1 -2,-1 -1,0 -1,0 -2,0 -1,-1 -2,-1 -2,-1 -1,0 -2,0 -3,-1 -1,0 -1,0 -2,0 -1,-1 -2,-1 -3,-1 -1,0 -1,0 -2,-1 -1,0 -2,0 -3,0 -1,-1 -1,-1 -2,-1 -1,0 -2,0 -3,-1 0,0 -1,0 -2,0 -1,0 -1,-1 -2,-1 -1,0 -1,0 -2,0 0,-1 -1,-1 -1,-1 -1,0 -1,0 -2,0 0,0 0,0 -1,0 0,0 0,-1 0,-1 0,0 0,0 -1,0l2 -5 45 12c2,0 4,-1 4,-3l0 0c1,-2 0,-4 -2,-5z"/>
   <path class="fil3" d="M391 196l-59 -16c-2,0 -4,1 -5,3l0 0c-1,2 0,4 2,5l8 2 -2 6c0,1 0,1 0,1 -1,1 -2,2 -2,3 -1,1 -2,2 -2,2 -1,1 -1,1 -1,1 0,1 0,1 -1,1 0,0 1,0 1,1 0,0 0,0 0,0 0,0 1,1 1,1 0,0 0,0 0,0 1,0 1,0 1,0 1,0 1,0 2,0 1,0 2,0 3,0 2,0 5,0 7,0 2,0 4,1 6,1 7,1 12,2 15,3l-27 19c-1,0 -2,-1 -3,-1 -4,-1 -7,-1 -11,0 -3,1 -6,3 -6,6 -1,2 0,3 1,5 2,2 4,3 6,3 3,1 6,1 9,0 2,0 4,-1 5,-2 1,1 2,2 4,4 2,2 4,4 7,5 2,2 5,3 9,4 3,1 5,1 7,0 3,0 5,-1 6,-3 1,-1 2,-3 3,-5 0,-1 0,-4 -1,-2 0,1 -1,1 -1,2 -1,1 -2,1 -3,1 -2,1 -5,1 -8,0 -2,-1 -5,-2 -7,-3 -3,-2 -5,-4 -6,-5 -2,-2 -3,-3 -3,-3 0,0 0,0 0,0 0,0 0,0 0,-1 1,0 1,0 1,0 0,0 1,-1 1,-1 1,0 1,0 1,-1 1,0 1,0 2,-1 1,0 1,0 2,-1 0,0 1,-1 1,-1 1,0 2,-1 2,-1 1,-1 2,-1 2,-2 1,0 2,-1 3,-1 0,-1 1,-1 2,-2 0,0 1,-1 2,-1 1,-1 1,-1 2,-2 1,0 2,0 2,-1 1,0 2,-1 2,-1 1,-1 2,-1 2,-2 1,0 1,-1 2,-1 1,0 1,-1 2,-1 0,0 1,-1 1,-1 1,0 1,-1 2,-1 0,0 0,0 1,-1 0,0 0,0 1,0 0,0 0,-1 0,-1 0,0 0,0 0,0 0,0 0,0 0,0 0,-1 0,-1 0,-1 0,0 0,-1 0,-1 0,0 0,0 0,0 0,0 0,0 -1,0 0,0 0,0 0,0 -1,0 -1,0 -1,0 -1,-1 -1,-1 -2,-1 0,0 -1,0 -1,0 -1,0 -1,-1 -2,-1 -1,0 -2,0 -2,0 -1,-1 -2,-1 -2,-1 -1,0 -2,0 -3,-1 -1,0 -2,0 -2,0 -1,-1 -2,-1 -3,-1 -1,0 -2,0 -2,-1 -1,0 -2,0 -3,0 -1,-1 -2,-1 -2,-1 -1,0 -2,0 -3,-1 -1,0 -1,0 -2,0 -1,0 -1,-1 -2,-1 -1,0 -1,0 -2,0 0,-1 -1,-1 -2,-1 0,0 0,0 -1,0 0,0 0,0 -1,0 0,-1 0,-1 0,-1 -1,0 -1,0 -1,0l2 -5 44 12c2,0 4,-1 5,-3l0 0c1,-2 0,-4 -2,-5z"/>
  </g>
 </g>
</svg>
